/* XPM */
static char *result[] = {
/* columns rows colors chars-per-pixel */
"67 70 210 2 ",
"   c #040005",
".  c #04040B",
"X  c #09070D",
"o  c #07080F",
"O  c #09080C",
"+  c #050711",
"@  c #040914",
"#  c #0B0B14",
"$  c #040D1B",
"%  c #090E1A",
"&  c #04101E",
"*  c #0C101C",
"=  c #091215",
"-  c #121215",
";  c #161D1E",
":  c #050F21",
">  c #041323",
",  c #0B1627",
"<  c #04162A",
"1  c #0A152B",
"2  c #041A2E",
"3  c #091A2D",
"4  c #0D1A26",
"5  c #121B23",
"6  c #141521",
"7  c #051731",
"8  c #041C34",
"9  c #0A1D32",
"0  c #031E3A",
"q  c #0A1E38",
"w  c #101D31",
"e  c #04223C",
"r  c #0B253D",
"t  c #032E3C",
"y  c #0A2333",
"u  c #122235",
"i  c #192436",
"p  c #15243A",
"a  c #192438",
"s  c #11293D",
"d  c #193335",
"f  c #1B2628",
"g  c #222A2F",
"h  c #272930",
"j  c #2C2B33",
"k  c #23313D",
"l  c #283A2A",
"z  c #75331A",
"x  c #472D2F",
"c  c #6E332C",
"v  c #30462D",
"b  c #2E433F",
"n  c #3A4634",
"m  c #032543",
"M  c #0B2543",
"N  c #052A45",
"B  c #0C2C44",
"V  c #032649",
"C  c #032B4C",
"Z  c #0A2C4C",
"A  c #082449",
"S  c #102E4E",
"D  c #04324D",
"F  c #0C344D",
"G  c #083349",
"H  c #18374B",
"J  c #0B2755",
"K  c #032D53",
"L  c #0A2E53",
"P  c #032E5A",
"I  c #0A2D5C",
"U  c #032751",
"Y  c #172655",
"T  c #023255",
"R  c #0B3253",
"E  c #033955",
"W  c #02345C",
"Q  c #0B345C",
"!  c #02395D",
"~  c #0B3A5D",
"^  c #0C3856",
"/  c #123455",
"(  c #153B57",
")  c #14355C",
"_  c #113A5C",
"`  c #1A3D5C",
"'  c #1C3453",
"]  c #2B3E4C",
"[  c #2F3A47",
"{  c #333844",
"}  c #262E50",
"|  c #333656",
" . c #042E62",
".. c #062E6B",
"X. c #102F64",
"o. c #023563",
"O. c #0A3563",
"+. c #023B64",
"@. c #0A3B65",
"#. c #02356A",
"$. c #0B3469",
"%. c #023C6B",
"&. c #0B3D6B",
"*. c #143D62",
"=. c #193F60",
"-. c #193F6F",
";. c #153766",
":. c #023471",
">. c #093770",
",. c #033C72",
"<. c #093E71",
"1. c #003F78",
"2. c #413258",
"3. c #57365D",
"4. c #02445E",
"5. c #0B425E",
"6. c #1B435C",
"7. c #18465A",
"8. c #26494B",
"9. c #234354",
"0. c #2B4456",
"q. c #264858",
"w. c #354859",
"e. c #2D5B5E",
"r. c #325358",
"t. c #014166",
"y. c #0A4165",
"u. c #02426D",
"i. c #09436D",
"p. c #164565",
"a. c #1A4365",
"s. c #1F4C66",
"d. c #13436C",
"f. c #19446B",
"g. c #16486C",
"h. c #1B4A6B",
"j. c #024372",
"k. c #0A4372",
"l. c #02437B",
"z. c #0B4676",
"x. c #114C77",
"c. c #1A4A75",
"v. c #134471",
"b. c #1F5071",
"n. c #18537F",
"m. c #294B65",
"M. c #214B6D",
"N. c #294F6F",
"B. c #214463",
"V. c #314765",
"C. c #2A5364",
"Z. c #205069",
"A. c #2F526C",
"S. c #25596F",
"D. c #32536E",
"F. c #294C74",
"G. c #234A72",
"H. c #2D5475",
"J. c #2E5877",
"K. c #22547C",
"L. c #2D567C",
"P. c #2E5A7A",
"I. c #235774",
"U. c #335C76",
"Y. c #325D7B",
"T. c #365B7C",
"R. c #33646C",
"E. c #36647C",
"W. c #4A5542",
"Q. c #4F575A",
"!. c #506E44",
"~. c #436151",
"^. c #6D6D42",
"/. c #414A66",
"(. c #415A6F",
"). c #406766",
"_. c #54696C",
"`. c #6C7162",
"'. c #688072",
"]. c #718273",
"[. c #868A4D",
"{. c #86815A",
"}. c #B5A257",
"|. c #808B60",
" X c #BBB76D",
".X c #063F83",
"XX c #0D4E81",
"oX c #0C4D8B",
"OX c #014084",
"+X c #1D4E80",
"@X c #1D5384",
"#X c #13528B",
"$X c #045093",
"%X c #295F8F",
"&X c #2F5D85",
"*X c #3A5B83",
"=X c #386280",
"-X c #356285",
";X c #3B6C95",
":X c #466980",
">X c #447A8F",
",X c #587996",
"<X c #547DA0",
"1X c #126AC3",
"2X c #5082A8",
"3X c #5983A8",
"4X c #4C89B8",
"5X c #6592B2",
"6X c #7594B0",
"7X c #8AB5D9",
/* pixels */
"T T W W @.o.+.! t.+.+.t.+.! %.+.u.t.t.+.E ! u.u.u.+.%.#.+.%.u.1.u.%.+.t.! +.t.%.%.u.%.t.+.D ~ ) ` +.+.+.+.+.+.W E W o.E W o.W W W T D ",
"W W o.+.+.%.+.t.t.+.t.! t.t.@.y.+.t.+.T N R t.u.u.%.+.#.%.%.%.j.j.u.u.+.+.u.+.i.j.%.j.$.o.r Z 8.`.i.%.+.! o.+.W T #.! E +.W W ! ! T K ",
"! ! +.+.%.+.+.+.%.%.+.+.t.+.@.d.@.t.t.e & 2 D u.j.%.%.#.+.%.%.,.%.j.%.%.%.%.%.j.u.j.%.T 0 $ < H _.+.+.+.! +.o.! ! #.T W #.! ! W ! T T ",
"+.+.+.+.%.+.t.t.u.+.u.t.t.%.2X3X@.t.t.e + + 9 T %.%.%.+.#.%.%.%.%.j.,.,.&.j.z.4Xj.%.W e $ + < L ) #.o.W o.#.+.o.W o.E ! o.W W ! W W T ",
"+.,.%.@.+.y.+.t.u.+.t.t.t.+.d.g.&.%.%.N $ . = m +.u.%.%.#.o.&Xk.j.u.u.,.,.%.z.j.%.+.V >   @ 8 W #.o.o.o.o.#.+.o.#.W T W W o.W ! ! W T ",
"! %.E @.1XoX! t.t.t.t.t.i.+.i.i.i.u.u.o.2 @ . , C +.%.#.+.O.W @.i.u.j.u.j.j.%.j.+.P 8 + . < K o.#.#.#.o.#.o.o.#.$.Q I P o.! W ! T ! T ",
"u.t.E %.$Xz.+.u.u.+.u.t.u.u.u.j.j.l.l.%.G 4 o @ e W +.#.#.o.~ o.i.j.j.u.u.,.i.%.o.m $   $ e W #.+.#.+.#.+.#.o.o.o.I 3XQ o.+.+.! W W T ",
"+.x.i.t.! y.%.%.+.%.t.u.u.u.j.l.l.j.j.i.! y & . > m o.%.$.@.&Xg.o.%.%.u.u.%.%.+.C < + + < K #.#.#.+.#.+.+.#.o.#.o.I *.Q W o.! ! ! W T ",
"! E t.5./.( +.+.%.+.%.%.i.u.u.l.j.j.u.u.u.! 0 @ + < C  .#.W @.~ o.#.$.@.Q #.+.P 0 @ . > V W %.%.+.#.+.%.+.o.#.+.#.O.T o.W o.! +.+.! E ",
"%.! ,.&.].6.%.#.#.%.%.%.u.j.u.j.j.j.j.j.j.u.T < . @ 0 K Q Q K P L P P ,XB. .W m : . $ 0 W #.#.v.K.#.%.+.%.+.#.#.o.W ! o.#.W ! +.+.! ! ",
"+.%.%.@.o.o.o.#.%.%.#.%.j.l.l.j.j.j.j.u.u.u.t.e $ . : 8 0 0 8 < 9 9 7 < 8 0 0 < + + < K o.$.;.*X6Xo.#.$.%.#.#.W O.o.+.#.,.%.+.+.+.+.o.",
"%.+.+.o.o.+.o.#.#.+.%.j.j.l.XXj.j.j.j.j.j.j.u.C > + . $ $ @ + + . . + + @ $ $ @ + $ 0 o.#.o.@.*.*.o.#.#.%.#.#.#.o.o.o.%.#X%.W +.@.+.! ",
"%.+.o.W o.W o.%.%.%.i.j.j.j.XXj.j.u.j.j.u.%.#.V < +     .                   .     $ 0  .o.W g.*.$.O.+X&.#.#.#.#.#.o.o.+.#.#.+.+.+.+.+.",
"@.W W #.o.o.#.%.%.j.j.j.l.j.j.j.j.u.u.j.u.W m 7 @ . . .                       . o : : e K W @.+.$.#.#.#.%.#.+.#.#.+.o.o.#.o.W +.@.+.+.",
"o.#.+.@.o.O.%.%.%.j.j.j.j.j.j.j.u.u.i.u.W e : @ @ : : $ .                   $ : : @ + $ < V o.+.+.#.#.#.#.#.#.#.%.#.o.#.#.o.+.+.+.+.+.",
"W o.E.G.Q o.%.%.j.j.j.u.l.j.i.,.u.u.n.@.m & . @ : 0 V 0 $                 % 7 m A 8 %   @ < U #.+.%.,.+.+.,.%.%.%.+.+.o.#.o.W o.+.! +.",
"$.O.R.D.F W ,.u.%.j.j.j.j.j.j.j.u.u.K.C > .   $ e T W K < .             . $ V W W V <   . @ 8 W %.k.,.i.i.j.u.u.u.+.%.#.o.W W o.+.+.! ",
"o.O.F Q ^ ! %.u.u.u.j.j.j.j.j.j.u.u.T 8 .     > C o.%.P 8 +             . < P %.%.T <       $ m +.&.S.p.<.t.u.u.j.u.u.+.#.W W W W +.+.",
"o.E .. .#.t.t.u.u.j.i.j.j.j.j.u.u.! 8 @       @ e T +.C < .               > m W ! N >       . < D y.>XI.i.i.u.u.u.u.u.u.%.+.W W +.! @.",
"@.T #.#.#.+.u.j.u.j.j.j.u.u.j.z.u.D >         . $ < 2 > +                 . > 2 2 > .         + 8 E u.u.u.l.l.u.u.u.u.u.%.+.W W W W W ",
"..W o.#.:.%.i.j.j.j.j.j.,.i.j.u.! e +                 .                       .                 > T u.u.l.l.l.u.k.i.i.u.%.+.i.t.W W W ",
"..W o.o.#.o.v.j.u.u.j.j.j.j.u.u.T , .                                                           $ V 4.u.l.u.i.i.@X%X%.%.%.t.x.d.W W o.",
"L.O.o.o.o.J.5Xc.i.j..X<.y.j.l.t.B 6                                                             @ 8 ! u.j.j.u.%.@X@Xu.j.u.i.j.u.! O.~ ",
"7XL.o.o.o.^ 2Xc.W %.,.4.4.j.j.%.M , @ % $ % % $ $ $ $ @ $ $ $ @ $ @ $ @ @ @ $ @ $ @ $ $ @ % $ @ & e W u.j.u.u.u.$.+.u.u.u.u.t.t.@.6.M.",
"@.O.o.o. .K B e 8 2 e L T u.j.<.O.Z V M j z c } C N C F N N C m m m m m e m V m m m m M m m S S Z T +.u.u.+.T C e e e T ! j.u.u.&.B.Z.",
"o.O.o.W K e < @ + . + ; d ! %.j.j.u.t.j.i.w.| k.! y.%.%.%.%.&.i.i.+.@.o.W W $.E Q $.O.o.o. .o.o.#.%.u.u.+.C 8 $ + . $ < m ! #.1.#.#.o.",
"#.+.o.V m < @         + > K %.u.+.! T W o.R R E R W Q Q ~ ~ ~ ~ ~ _ ( / / ( ;.H 0.;.L Q L L L P P ! t.u.! 8 @ .     . + < N K 1.%.$.#.",
"#.#.#.0 0 > +         . > V +.+.T e 2 2 8 3 2 2 9 9 3 9 9 y u u u p a i i a i h { w u 9 9 9 7 < 9 V W t.T < o         . & e e t.%.W #.",
"#.o.o.8 8 & .         . $ V +.+.m > @ o @ . @ @ @ + + # @ # # # # # # - # # # # # # # # # @ # @ @ 8 D E P f X         . $ e e %.#.! ! ",
"#.o.#.0 8 : .           $ N +.+.e $ .                       .     X     .   X .                 + < D +.P 5 .           * s e #.o.+.#.",
"+.o.#.8 8 : .         . $ m W +.e @                                                             . < T t.T < .         X h 9 y W o.#.%.",
"#.o.o.8 7 $ .           $ m W W e $                                                             . < E +.T < .         X h ] r Q +.#.O.",
"o.o.o.0 8 : .         . $ 0 W W 8 $                                                             X 2 T +.D < .         . * y e O...:.F ",
"#.#.o.8 7 $ .           $ m W W e @                                                             . , R +.T < .         . $ 9 9 o.:.$.8.",
"o.#.o.a w % .         . $ m W W 8 @                                                             . , T t.D < .           @ 2 2 +.#.o.T ",
"W o.o.: $ + .           $ m W W 8 @                                                             . > L %.R 1 +           + & > +.+.o.o.",
"o.@.o.$ % +           . $ m W W 8 .                                                             . > Z *.~.3 +         . + $ * +.+.+.! ",
"W W o.$ $ @ .         . & m W W 8 @                                                             . > C ( !.1 +           + & > u.+.+.+.",
"W o.o.< > % .           $ m o.W 8 @                                                             . & C $.B > .         . @ * 4 +.t.+.t.",
" .W o., < $ .         . $ V ! W e $                                                             O < T %.I < .           + & u y.! t.! ",
"W W o.< , $           . & m &.W e @                                                             . & D +.D > .           @ & & t.+.+.+.",
"W W o.3 , 6 o         . & m ;Xd.e @                                                             . > N ! D < .         . @ > , +.+.o.W ",
"W o.o.1 , % .         . % N c.*.e @                                                             . > N ! C > .           @ > < +.o.W W ",
"! W +., , % X         . & m o.o.0 @                                                             . & m ! C < .           @ & > ! W W W ",
"W o.+.3 1 & .         . < V #.o.0 $                                                             . & N ! T < @         . & < < W T P P ",
"W W ! C V e > @ . X - = e P #.o.0 @                                                             . & N ! W e < $ @ . @ > 8 N C T T P Q ",
"W +.W W W P M 9 9 i W.] T #.#.P 8 +                                                             . $ m W W P V 0 8 < 2 e C T W W T W -X",
"W W +.W W W E  .P R 7...#.$.#.P 8 +                                                             . $ m T W W W K C T C 3.| W W W W @.! ",
"W P W W W W o.o. .o.T o.%.#.#.P 0 @                                                             . $ m W W W W E R T T 3.2.P W W ! W W ",
"W W P W P W  .W W W W #.#.#.#.P 8 +                                                             . > V T W W W T  .o.D ^ ^ T o.W W W W ",
"P W W P P W T P D W #.#.o.+.o.P 8 @                                                             . & e W W W W I o.o. .R W W W o.! W W ",
"W W P W W P Q D.e.P T W W #.o.K s @                                                             . & m W o.W W W P  .P L I o.o.W W W T ",
"I P o.W P P K I F P P W T +.#.P | $                                                             . > V W W W W T W W T E W T o.W W o.%.",
" .T I P W T P W T  .W W W o.o.f.' %                                                             + < V P W W W O.W T W W W o.O.W W #.#X",
"T ..W o...W W D T T W P  .o. .O.Z > .                                                           $ 0 K W P W W W O.>Xd.W ! o.W W W +.+.",
"W W T L R ! W o.T T W  .T I T Q K 0 $ .                                                       + < V P W W W W P P o.@.W W ! W W T T T ",
"#.o.P #.R k V...#.W W P *.,XQ W P V 2 $ @ .                 .     .                       @ $ > m K P W P W W W W T T W W T T W W P C ",
"Q E E 9.{. Xl B P #.W T ` 6XR T W P V e < : +             . % > > > & $ + .           . $ < 8 m K W P T P W P P P P P T P K K W +.P K ",
"#.! ! E V.}.`.9.F W o.W R _ Q W W P P K C e :           . % 9 m N V m 8 % O           @ 9 A L K K K P K P P P T P P K K P L K T P P P ",
"o.o.! R G.r.I I T T o. .o.W W W W W W W W C <             % e C T T K m > .           # x Y o.T L C ^ T C K K P P P K P K C K P L K J ",
"~ W ! E &.F o.~ T  .o.Z C W W o.W W o.+.W T <           . % 8 K P T P m > .           # c { T W P J D.J C P T T K T T P K C K K K L R ",
"P W ! ! #.! ! I.c.W ) N._ W W o.o.+.+.! +.D <             % 0 C K P P m > .           $ r P O.Z C C I C P D T ! ~ p.y.E T K K C K Z V ",
"P T #.E +.+.W E W o.O.e.7.+.+.+.@.+.+.+.! D ,           . $ 8 C K T L m > .           @ e C %.W C K W W ! ! ! E b.p.p.b.h.T a.M.C ( 3X",
"P T +.! ! o.! ! E ! W E W +.+.@.+.+.+.! ! C <             @ e C K T U M , X           % w 8.Z D T #.E #.E @.E E p.~ h.M.p._ F.` a.Y._.",
"P C o.T ! W W ! E E +.! ! +.+.+.o.+.+.E ! C >           . $ e C J.M.K r > .           % 9 9.E O.+.W o.T P K K C ~ R a.=.a._ h.a.S m.A.",
"K T T T E ! E ~ ! +.+.! +.W ! +.! W W W W C >             & 0 C f.^ K m > .           @ e T W ! ! T K K P L J K K t C V D R T ^ R 6.Z ",
"K K K T T ! X.( T R R o.W +.! ! W W W K C N <             & e K P K K m > .           @ 9.W ! ! W T P C C R ) C ` P.R.E.U.C.P.E.J.E.F.",
"C C K K W W ' w.) O.+.,.! ! W W W W T T T C < @ .       o > t W E W T D 9 @         . > C W ! W T P K T Z ` m.N q.,X(.q.F.U.=XY.Y.J.J.",
"V K T K T W $.R Q T E oXk.W T K P K K K K C m < $ @ - - 2 V P W W ! +.W C 8 & $ $ $ < m T +.W P P K K K C C N G ;.{.[.] L t Z C D R R ",
"V P ( K C T K L R Q ! i.+.T K P K K K K K P C C V u ^.n D %.X.! ! ! ! W ! T D m t C T W ! W T P K K K K C C C P L v Q.Y J t m.V C T ! "
};
