/* XPM */
static char *result[] = {
/* columns rows colors chars-per-pixel */
"70 73 200 2 ",
"   c #040005",
".  c #04040B",
"X  c #08070E",
"o  c #08080F",
"O  c #040711",
"+  c #030A13",
"@  c #090C15",
"#  c #030D1C",
"$  c #0B0F1A",
"%  c #03111E",
"&  c #0A121D",
"*  c #141114",
"=  c #040F20",
"-  c #031323",
";  c #0A1625",
":  c #051827",
">  c #041529",
",  c #081629",
"<  c #031A2D",
"1  c #0C192A",
"2  c #121624",
"3  c #131827",
"4  c #181C27",
"5  c #031C34",
"6  c #021E3A",
"7  c #0E1F38",
"8  c #111F30",
"9  c #032035",
"0  c #03223C",
"q  c #0E2339",
"w  c #242525",
"e  c #022544",
"r  c #032945",
"t  c #092D47",
"y  c #022649",
"u  c #022B4D",
"i  c #0C2D4C",
"p  c #03324C",
"a  c #02384E",
"s  c #113E43",
"d  c #022D53",
"f  c #0A2E55",
"g  c #032E5A",
"h  c #0A2E59",
"j  c #033355",
"k  c #0A3354",
"l  c #033A54",
"z  c #02335C",
"x  c #0A335C",
"c  c #02395E",
"v  c #0A3A5D",
"b  c #0C3956",
"n  c #133352",
"m  c #143C53",
"M  c #12335B",
"N  c #19365C",
"B  c #133B5D",
"V  c #1A395E",
"C  c #2F2D43",
"Z  c #202F56",
"A  c #243F57",
"S  c #2F3658",
"D  c #29375A",
"F  c #333558",
"G  c #333D5C",
"H  c #062E62",
"J  c #0C2F63",
"K  c #092A68",
"L  c #023563",
"P  c #0A3563",
"I  c #023B64",
"U  c #0B3B64",
"Y  c #023669",
"T  c #08346A",
"R  c #023B6B",
"E  c #0A3C6B",
"W  c #123D64",
"Q  c #1B3D62",
"!  c #123D6A",
"~  c #183E6D",
"^  c #183460",
"/  c #053672",
"(  c #033D72",
")  c #093D73",
"_  c #013F7A",
"`  c #0D3B7A",
"'  c #073576",
"]  c #123E7E",
"[  c #503E4E",
"{  c #663D40",
"}  c #6B3D58",
"|  c #593860",
" . c #02425F",
".. c #184951",
"X. c #14435C",
"o. c #1A4858",
"O. c #1C465E",
"+. c #25454D",
"@. c #245447",
"#. c #38544F",
"$. c #28475D",
"%. c #224959",
"&. c #325658",
"*. c #024265",
"=. c #0A4264",
"-. c #02426D",
";. c #0B426C",
":. c #094A6A",
">. c #144266",
",. c #1A4363",
"<. c #194966",
"1. c #15436B",
"2. c #1A426A",
"3. c #124B6C",
"4. c #194B6B",
"5. c #11526A",
"6. c #024372",
"7. c #0B4372",
"8. c #0B4974",
"9. c #03437A",
"0. c #09447A",
"q. c #0A4A7B",
"w. c #114475",
"e. c #1B4673",
"r. c #134A74",
"t. c #1B4A74",
"y. c #13497A",
"u. c #1C4F7C",
"i. c #1D557D",
"p. c #1F5E79",
"a. c #1E5B77",
"s. c #224466",
"d. c #274D64",
"f. c #2F4A60",
"g. c #254C6B",
"h. c #26456A",
"j. c #334C6E",
"k. c #2A556C",
"l. c #26596B",
"z. c #355A64",
"x. c #264F79",
"c. c #255279",
"v. c #295179",
"b. c #2B5A7D",
"n. c #215C78",
"m. c #355B79",
"M. c #3A5F7F",
"N. c #315479",
"B. c #3F6462",
"V. c #28627F",
"C. c #22617A",
"Z. c #316A7F",
"A. c #33627B",
"S. c #5B4D4C",
"D. c #4F485E",
"F. c #424459",
"G. c #415A5E",
"H. c #59445A",
"J. c #794D4F",
"K. c #794A54",
"L. c #446254",
"P. c #526255",
"I. c #4E7755",
"U. c #637449",
"Y. c #5F4068",
"T. c #455664",
"R. c #405F7E",
"E. c #416667",
"W. c #486B69",
"Q. c #557B6E",
"!. c #466C72",
"~. c #9A4D3A",
"^. c #894350",
"/. c #76887A",
"(. c #043E81",
"). c #024283",
"_. c #0D4C82",
"`. c #074B8B",
"'. c #1D5584",
"]. c #0D509F",
"[. c #224F84",
"{. c #215887",
"}. c #2D5A81",
"|. c #345B84",
" X c #3F688B",
".X c #316489",
"XX c #2D6494",
"oX c #3A6295",
"OX c #416689",
"+X c #4C7999",
"@X c #577E99",
"#X c #427CA2",
"$X c #7AA487",
"%X c #5483A7",
"&X c #6898AD",
"*X c #6498AA",
"=X c #6E9CBE",
"-X c #95B0BE",
";X c #87A8B9",
":X c #96B4C2",
/* pixels */
"j p k j z g z g g.j.N f t u d g z z z z z z z v v z I I I T I ,.L.#.^ L ' ( Y L L z z j j g d d d d d j j d u u r t t u d d u d d j g j g k ",
"j k.m k k g d g f i g z g g H K g z z z z z j m.d.v L I L U U -.I U W b v Y I I I z z r d d d g d g d d u j j u p r u d u d d u d d g g j d ",
"l k.m p f g g d g j z T J N ! ' g z z z z z z -   0 c I I L U P 1.! x.1.v *.I I I c -   - g d d g g g d u p p u f u j u d u u d u d d f d d ",
"j t p u g h g z L g j z Z } H.<.x x z z z z z <     p c I I U <.M.Q W ! Q U I I L r   . 0 g j g g j g j d d g d d g g d d d d d d g u d u d ",
"j u u d j z z z L z f z S ^.K.m x.P z z z z z d %   % l I I *.4.OXW I Q f.V I I j #   % z z z g j z z z z j j g g g j j g j j z j l j u u u ",
"p j g z U W z z L j k P ^ C G E i.U z z z z z z 0 .   0 I  .=.2.N.>.U v D P I L -   . p L z z z z z z z z z z z j j z z z j j j b p j j j p ",
"g g g x 2.2.z z L z l Y Y U U Y I I L L Y z L z L - . O j I v h.A.2.U Y Y I ;.t .   0 Y Y L Y z z z z j z c L c z z z c l j z m E.$.j j j j ",
"z z z j x l x v c L I I *.*.*.R R R -.Y Y Y L L L u +   - *.v v b k k I I I v &   % I I -.R R R Y z z z z L L L L L L c c j x %.W.f.x j j j ",
"z z c c c c c *.L I I *.I *.*.-.-.-.R R E R Y Y L Y e     0 9 < - - - , < 0 > . O d R -.-.-.R R R Y L c c I c I I c j u p l L b ..p z g j j ",
"I I c *.*.I l 9 < j I I *.I *.R -.-.-.6.-.R -.I I Y z #   X X             . .   - R -.R *.*.-.I Y P B U L I L I I j % + % 0 L l a z z j z z ",
"U L I I I r + . . % l U E I *.*.6.-.-.6.-.6.-.R Y z 5 X                         O e -.R R ( ( U U X.G.d.=.I I I j #       # e l c z z z z c ",
"I I *.*.j %       . - v I I *.-.-.-.-.-.6.-.-.-.j % .   @                   + $   . % 6.( _ 9.E E l./.!.=.I I j #           - p c L P I c c ",
"I I I *.r .           ; x *.-.-.-.-.-.6.6.6.-.L -     e z j +             % k U 9     < -.*.6.I E 1.T.g.L L j +             # 0 z L z z c c ",
"R *.I *.r               & U :.-.-.6.( 6.6.-.*.<       L Y U 5             r 6.'..X.   . < *.-.-.R R P L L g +               : j L z z c z z ",
"*.I -.*.j %               # R 6.-.-.R -.:.6.0 .       d P W &             5 U 6.0 .     + d R R R R Y L g +               # r j z I z c c z ",
"-.I *.I *.p +               % R R -.*.;.7.*.-           & @                 $ & .         # Y R Y Y Y z #               # t g z z L c z c c ",
"7.I *.-.I I j % .             - R I 3.Z.p.r .                                             + u Y R Y g #               # u J ~ W g L z z c z ",
"E I R *.R -.*.j %               - c X.4.;.<                                               . 5 Y Y g %             . # d J ! |.v.x L I c c z ",
"=.I I Y R I R -.j % .             : v *.c 0 % % # # # = # # & $ # = = # # # # # # # # % # # 5 R z -               # u L L P g x z z c I c c ",
"c R R Y Y Y R E -.p % .           . < R 6.*.I c L Y L T g U W j L T L 1.2.L R L L z z L L L Y Y e .             $ d Y Y L L x z z L c c I *.",
"c Y Y Y Y R R R 6.-.j =             % Y -.c z z z z z g g z k g h J h v.g.x z z z z z z j z z Y d #           # d Y L L L z L x L L L z c I ",
"I L Y Y I R R -.6.9.6.z -           < -.I 0 - > > - > > ; > > > ; - > 8 ; , > - > > > > , , 6 T J 7 O       # g Y Y Y L P L L Y ( ( Y L I U ",
"I L Y Y R R R 6.6.9.q.6.z %       - j 6.L :                                                 - L P M q @ O - g E Y Y L L L L L Y 7._.-.L I I ",
"L L Y R R Y 6.6.6.9._.q.6.c & & 5 l 6.-.c -                                                 - x W >.M i r ! E L Y Y Y Y L L L L ) 0.I c L U ",
"L Y Y R R 6.7.7.6.9.9.6.6.6.x x I 6.-.-.z -                                                 - c =.U U E L y.Y Y Y Y Y Y Y Y L L Y Y L L L I ",
"L L R R R 6.6.6.6.6.6.6.-.-.-.-.7.6.6.R z -                                                 # z I U Y E Y E L Y Y Y Y Y Y R L Y L L L Y I I ",
"Y Y R -.6.6.6.6.7.6.6.( -.6.-.-.6.6.6.R j -                                                 - Y Y R I I Y T Y R Y Y R Y R R L L L Y L L I I ",
"U R R -.-.6.6.6.6.6.6.6.-.-.-.8.8.6.6.( z -                                                 - L ( Y L Y Y ( I Y R R R Y R I L Y Y L L L c I ",
"Y ( 6.R 6.6.-.6.6.6.6.6.-.-.7.'.i.6.6.9.L -                                                 - R R R R ( 6.( -.7.6.6.-.*.R R R Y Y L z z c L ",
"Y R -.R 6.-.6.6.6.6.6.6.6.-.( 6.R ( -.-.z -                                                 - Y 6.6.6.( U >.=.E ( -.*.-.-.-.-.R Y L z z z z ",
"c -.-.-.R -.6.6.6.6.6.6.6.6.-.6.7.-.*.:.l -                                                 - -.6.-.-.7.=.*Xb.7.;.*.-.-.-.-.-.R I Y z z z z ",
"*.*.-.-.6.6.6.6.-.6.6.6.6.-.6.6.6.;.:.5.l -                                                 , I 6.6.-.-.=.V.3.;.) 6.-.-.-.-.-.-.-.R L z z c ",
"*.-.6.6.( 6.7.6.-.-.6.6.6.6.6.6.6.6.n.C.l &                                                 - 6.6.6.-.-.6.6.6.:.9.).6.-.-.-.-.-.R R I L c z ",
"I -.6.-.6.6.6.6.6.6.7.6.6.6.6.6.6.7.;.:.v -                                                 < 6.6.6.6.6.6.6.:.6.).9.6.-.7.7.R -.-.R *.:.;.c ",
"U 8.7.6.-.;.6.6.6.6.6.-.-.6.-.;.6.7.-.7.;.,                                                 > 6.6.6.6.6.6.-.-.9.6.6.-.7.u.{.8.E -.R *.r.3.c ",
"b.+Xr.6.6.6.9.R ;.-.6.6.;.>.j.s.;.6.7.7.I :                                                 > -.6.8.6.6.6.:.6.6.6.-.7.;.'.XXy.6.6.-.;.R R I ",
"OX=Xx.6.-.).).*.*.-.6.6.;.,.j.s.7.9.r.x.B ;                                                 > R 6.7.6.6.6.-.6.-.6.6.6.E 7.0.7.6.6.6.-.-.*.E ",
"4..Xr.6.-.6.9.7.;.-.6.6.( ! ! 1.0.~ F.J.[ 2                                                 - R -.7.E 7.6.6.6.6.6.6.6.6.( 7.-.6.6.6.6.-.*.Y ",
"U ;.( 6.*.-.1.Z.p.6.6.9.0.6.-.-.7.s.S.~.{ 2                                                 - Y w.8.Y 7.6.6.6.6.6.6.6.-.6.-.6.6.6.6._ 6.-.-.",
"Y R _ ( :.E >.E.l.6.6.6.9.6.6.-.-.0.g.D.G ,                                                 - R E E Y ( -.6.-.6.6.-.0.n.6.6.-.6.6.6.R _ 9.R ",
"Y c R -.*.-.) 2.w.6.6.6.6.6.6.:.R 9.6.1.>.<                                                 - Y Y Y Y R -.6.-.6.6.6.7.8.6.6.6.-.6.6.-.6.9.R ",
"R c L -.6.`.].`.0.9.6.6.6.6.-.:.-.6.;.-.-.<                                               . < Y Y Y R R -.-.-.-.6.-.6.6.6.6.6.6.6.6.-.:.*.( ",
"Y L L R _ 9.`.9.6.6.6.6.6.-.-.6.6.6.6.-.-.p +                                             # z Y R Y Y R R *.*.( 8.@.2.7.6.6.6.6.6.6.-.*.-.Y ",
"L Y Y Y Y R R -.R 6.6.6.6.6.6.6.6.6.6.6.6.6.0 o                                         O u Y R Y Y Y ( -.*.*.6.[.$Xh.7.6.6.6.6.;.8.:.-.( Y ",
"L Y Y Y Y I R R R 6.6.-.-.6.6.6.6.-.6.6.6.6.6.v u O           O 3 3 4 w *           = u Y Y Y Y Y I R R -.*.-.7.;...>.6.6.6.:.3.,.%Xa.I I Y ",
"L Y Y Y Y Y R R R R R 6.6.6.6.6.7.6.6.6.6.6.-.:.;.>         . > Y I v #.w           y ( Y Y R Y Y Y Y R -.6.-.6.-.;.-.6.6.6.5.+X-X-Xb.U x z ",
"L Y Y Y R Y Y I R R R R -.-.6.-.-.R R 6.6.R E }.e.;           = T ' / P ;           e Y R R Y Y Y R R R 6.6.6.-.6.9.6.6.6.-.=.>.;X-X%Xt.x z ",
"z Y Y R Y R R R Y R R R R R R R R R R R R R Y W 1.1 .         # T T Y L -           5 Y Y Y Y R R R R ( 6.6.6.6.6.6.6.6.6.6.;.1.+Xm.t.;.v L ",
"L Y Y Y R Y Y Y Y R R R R R R R R R Y Y R Y L W e.1 .         # L c Y L >           0 Y Y Y R R R R R 6.6.6.-.-.6.-.9.6.6.6.6.q.8.;.7.I U Y ",
"L Y Y Y Y Y R Y R R R R R R R -.R R R R R Y Y Y L - .         # L R Y L =           6 L L Y Y I Y R E ( 6.6.-.-.-.:.9.6.-.6.6.6.6.6.-.I Y Y ",
"z L L Y R R R R R R -.-.-.R R -.R -.-.R R Y Y Y Y ,           # Y R Y H -           5 L L L I L I R -.-.6.9.-.*.*.7.9.9.9.6.6.6.6.6.-.*.I I ",
"L L Y I R R ( R R -.R ( R ( R -.-.R R R R Y R Y Y 5 .       . 5 Y Y Y L >           e I L L L L I I I *.R 6.(.t.W ` 6.6.6.6.6.6.6.6.-.-.I I ",
"L L L I R R R ( R 6.R R -.-.R R R -.E R R R R R R g 5 O   + > d Y Y Y Y e = .   O > z L Y z L L I R -.*.I *.4.Q.z.0.-.:.6.6.6.6.6.6.;.-.*.I ",
"I L L Y R R ( R ( R -.-.R ( R 6.6.E U ;.Y R R R Y Y z d e d g R Y Y Y Y L g y y u g Y L L L L I I *.I *.*.I >.I.&.` *.*.6.-.-.-.-.-.-.:.I *.",
"L P Y R -.R ( ( -.R -.R R -.6.R Y E 1.E U -.R R Y Y Y I Y Y Y Y Y Y I R Y L Y Y Y Y L L Y L L L R I -.*.*.*.' ,.V ) *.-.-.-.-.-.-.R -.r.*.I ",
"L L E R R ( R 6.6.R R -.Y L z Y L v O.X.x z z z z L Y Y Y R Y Y Y Y R Y Y Y Y z g g g g j g j z c c c c c R ).( ) Y R -.-.-.-.-.*.-.;.#X3.I ",
"x I I -.-.R ( R R R R - O O o O O O O o o O . + O O O O O O O O O O O O O O O O o O O O X . X O O O O O O + + O ;.I R *.-.I -.R -.I I r.;.*.",
"o.b c I *.-.R R R -.i o                                     .                                                   5 -.-.*.I *.*.*.*.*.*.I I I ",
"&Xu.' ' R R ( ( R R q X                                                                                         % I *.I I *.I *.*.I *.I I L ",
"<.v / / c *.6.R ;.E 1.- . . . . . . . . . . . . . . . . . . O . . . . . . . . .   . . . . . . . . .   . . . . . c *.R *.*.*.I I I *.L I I c ",
"v  .I c  . .( E U R Y ( u u u u u u u u d d u u u g z g y z g g y g j f f P k r e i n 0 e e r e r r r u u l z -.I -.*.I Y I I I I I I c I z ",
"c R c  .c U ) 6.6.( R R R R R Y Y R Y Y Y Y Y 7.Y Y Y Y R Y Y Y Y Y L L L z z z z v.b.z z z L L z L L L I *.-.I R I I I I I I I I I c z z z ",
"I Y I *.U A +.v Y R R ( Y R Y R Y Y L d y y f e.) Y Y Y Y L Y Y L Y L Y L z z j z g x z y e e e g c I L I I I I I I I I U I I c z z z z z k ",
"R P I I W P.U.+.E Y Y ( Y / R Y Y g 5 X     X 5 z E Y Y Y Y L Y z Y L L z j z z z z z 5 .     . - j L I L Y I I L L L z L L z z z z x j z g ",
"I x T L ! E.Q.h.E Y Y / R R R Y c 0             e L L Y Y L L L L L c L z z z z z z e             > z L L z L z z z z z z L j k N k z z g z ",
"z v Y Y L v U T Y Y Y Y Y Y I I j #             # g Y Y Y L L z z L z z z z z z z z %             + r c c z c z z z z z g z l F Y.D z g z z ",
"z z L L L z z Y Y Y Y Y Y Y L I g +             O g Y Y Y Y L L L c z z z z z c c z +             . e z z z z z z j z j k j k S | S j z z z ",
"z g z z z z L Y Y Y L Y L L L L j =             # g L L L L L z z L z z z z L z c c -             + r z c c z z z c z j g z l n N k z z L z ",
"g z g l l z Y L Y Y L Y L L U z z e             0 L L L L L z L L z L z z c c L c c u             > d z z z c z z z z g H H g g z z z L z c ",
"z h W o.x z z L c Y L L P P z L I 7.k O     . 6 z L L L z L L z z c c L L L c z c L c r +     . > u g z z z z z z z z L H L J h f H L z L z ",
"h x ^ %.k g H z z L L Y t.=X~ x L 6.6.z u u d z Y L L L L L L c L L L L L c c c c c c c j u e u g z g z z z L c z z z j z H z l j h L z z L ",
"k f J x g g z j z Y L P T v.T L Y Y R Y Y L L H L c c I c L L c c c c c c L z Y I c c j z g z g g z z g z z z z z z z z z g z j z x x L z z ",
"L g j g H z z z z L L P oXe.! L L L Y I E I L z z c c c L c c c c z L c c l a Y L P z k g z g z z g z g z g z z g z z z U z j z z c z z c z "
};
