/* XPM */
static char *result[] = {
/* columns rows colors chars-per-pixel */
"50 50 255 2 ",
"   c #020102",
".  c #0A0504",
"X  c #0B0806",
"o  c #03060A",
"O  c #0B0609",
"+  c #050A0C",
"@  c #0C0B0B",
"#  c #140A06",
"$  c #120C0B",
"%  c #160B09",
"&  c #15120D",
"*  c #1C130C",
"=  c #1F190B",
"-  c #050C12",
";  c #0A0D12",
":  c #060915",
">  c #160C15",
",  c #0B1215",
"<  c #0B141B",
"1  c #0C1A1D",
"2  c #061118",
"3  c #141312",
"4  c #1B1512",
"5  c #11161A",
"6  c #131A1C",
"7  c #1D1B1B",
"8  c #1D1818",
"9  c #27160D",
"0  c #3A0B1B",
"q  c #241B15",
"w  c #2B1C14",
"e  c #231C1A",
"r  c #271715",
"t  c #361B18",
"y  c #2D100E",
"u  c #25221E",
"i  c #2C221C",
"p  c #2E2217",
"a  c #342415",
"s  c #33241B",
"d  c #3A241B",
"f  c #3A2818",
"g  c #3F230B",
"h  c #0B1422",
"j  c #0C1B23",
"k  c #0D1E29",
"l  c #131D23",
"z  c #181B27",
"x  c #151E36",
"c  c #100F26",
"v  c #261A26",
"b  c #341625",
"n  c #2B1A37",
"m  c #351435",
"M  c #330B26",
"N  c #0C222C",
"B  c #0E2124",
"V  c #132225",
"C  c #14242B",
"Z  c #1A242C",
"A  c #14292E",
"S  c #1C292E",
"D  c #192224",
"F  c #0F2531",
"G  c #0E2A32",
"H  c #0C2B3B",
"J  c #142532",
"K  c #1A2432",
"L  c #142A34",
"P  c #1B2C34",
"I  c #142D3C",
"U  c #1B2E3B",
"Y  c #192339",
"T  c #0D343E",
"R  c #14333C",
"E  c #1B323C",
"W  c #1D3436",
"Q  c #2B2423",
"!  c #2E2924",
"~  c #27252B",
"^  c #352B22",
"/  c #362A28",
"(  c #3D3229",
")  c #252C37",
"_  c #34233B",
"`  c #25343A",
"'  c #383436",
"]  c #49191A",
"[  c #480C1B",
"{  c #442C1C",
"}  c #472618",
"|  c #4A351D",
" . c #573319",
".. c #522815",
"X. c #6D311B",
"o. c #450A24",
"O. c #570D26",
"+. c #491626",
"@. c #591927",
"#. c #481A38",
"$. c #551634",
"%. c #66192C",
"&. c #741434",
"*. c #68173D",
"=. c #432D22",
"-. c #4A2825",
";. c #572628",
":. c #423124",
">. c #483829",
",. c #5C3A22",
"<. c #583729",
"1. c #493A37",
"2. c #5B3639",
"3. c #572837",
"4. c #643C26",
"5. c #662636",
"6. c #7B2438",
"7. c #683635",
"8. c #743636",
"9. c #6E292C",
"0. c #38433E",
"q. c #6F471C",
"w. c #58432A",
"e. c #4B4438",
"r. c #584536",
"t. c #4E402E",
"y. c #674829",
"u. c #795524",
"i. c #674738",
"p. c #7A4238",
"a. c #6D5839",
"s. c #775635",
"d. c #77452B",
"f. c #361A42",
"g. c #192E41",
"h. c #0B3444",
"j. c #0E3B4C",
"k. c #0B3746",
"l. c #133443",
"z. c #1B3543",
"x. c #1B3A43",
"c. c #133C4B",
"v. c #1B3C4B",
"b. c #143846",
"n. c #1B3D51",
"m. c #0C3B53",
"M. c #292C46",
"N. c #3A2746",
"B. c #253B44",
"V. c #243C49",
"C. c #273546",
"Z. c #37364B",
"A. c #283A52",
"S. c #343757",
"D. c #332D52",
"F. c #581747",
"G. c #541549",
"H. c #781D5B",
"J. c #6B1848",
"K. c #532253",
"L. c #4A325B",
"P. c #492B4B",
"I. c #682743",
"U. c #723447",
"Y. c #453B62",
"T. c #553464",
"R. c #703069",
"E. c #681F60",
"W. c #1D424C",
"Q. c #16404D",
"!. c #0C4555",
"~. c #144453",
"^. c #1B4453",
"/. c #1B4959",
"(. c #124954",
"). c #24424B",
"_. c #28454C",
"`. c #244553",
"'. c #2A4552",
"]. c #224A55",
"[. c #2C4C5B",
"{. c #254A59",
"}. c #344959",
"|. c #28515D",
" X c #354D56",
".X c #0E4D66",
"XX c #184D64",
"oX c #1C5263",
"OX c #185669",
"+X c #175874",
"@X c #244D62",
"#X c #265364",
"$X c #285869",
"%X c #365567",
"&X c #3A5472",
"*X c #334161",
"=X c #27647B",
"-X c #3C6676",
";X c #156479",
":X c #484744",
">X c #534C4F",
",X c #73514D",
"<X c #706C5A",
"1X c #484767",
"2X c #4F4F70",
"3X c #724461",
"4X c #4A6D73",
"5X c #787872",
"6X c #883738",
"7X c #8D2F38",
"8X c #95292C",
"9X c #8D581D",
"0X c #AC6C18",
"qX c #844838",
"wX c #875C37",
"eX c #8D522B",
"rX c #A5543C",
"tX c #B95B34",
"yX c #AF4E30",
"uX c #886239",
"iX c #9B6E29",
"pX c #B26335",
"aX c #92601F",
"sX c #C14E2D",
"dX c #CA6C36",
"fX c #89184D",
"gX c #872B48",
"hX c #952A47",
"jX c #8D3750",
"kX c #AB355A",
"lX c #8C3667",
"zX c #A33A62",
"xX c #884944",
"cX c #8B4859",
"vX c #9B5258",
"bX c #984C4B",
"nX c #AD504F",
"mX c #9A7052",
"MX c #B66955",
"NX c #934D6A",
"BX c #BC777B",
"VX c #947A6B",
"CX c #C24D58",
"ZX c #CD754C",
"AX c #D47C4E",
"SX c #CF6D6F",
"DX c #888670",
"FX c #A98D73",
"GX c #A58A4E",
"HX c #D08352",
"JX c #337186",
"KX c #106384",
"LX c #C85B81",
"PX c #8E81AA",
"IX c None",
/* pixels */
"IXK D / +.5.R.cXqX8.gX^ * r e e 3 $ O ' . .   @ O O . 3   . .   X O 4 6 X / X <Xe.@ i $ :X>.:X:X8 $ ",
"IX%Xz U.7.cX8.,XxX7.>.$ . Q & O   @ s e   % 3 O @ ; @ 3 &     3 . .       8 . . :X$ v e ! ' > $     ",
"IXZ + cXcXjXjX6.-.,.X . * %     & # ' 8 @ e 3 o 3 .         &       . @   . + u 3 a.% r e.    . $ X ",
"IX6 ~ gXcXzXvXp.{ q X # q @   @ $ @ 3 O ! $       .         o   o         & . 6 , ^ ' P.Q 3 @ . e v ",
"IX XvXNXSXjX6XmX' e e r.4 .   X X     e $ 7               ~ S           .   - o o & ! X .     $ i % ",
"IX3.cXNX8.7.7.,X4 $ e .     . 4 4 @ @ @                 ; D . O , + @ ; . 6 + + o e.0.= e X $ . 4 e ",
"IXcX2.vXgXxX( a.@ e u &     ! . X >.u o               6 < - 1 Z < , 6 , +   . o   u = X O 8 . . 8 @ ",
"IXU.3X3.+.a.t.:.. X *   . 4 4   X ^   3 .       ; l , z < l ,   o       . 1 + @ ,   <X. . 3 . . r > ",
"IXNXBX6.y.1.4 ^ & Q $   O = .   / & .       o < 6 B 1 < D ,   o     o   + 1 ` O , + DX    .     / 1.",
"IXjXSXxX-.Q @ & 4 q   3 @ @ ; X *         o U ).j j 1 - < 2 j l V V j V P ) , - + - ! 7 D 3 D 6 @ o ",
"IXNXMXxX:.w X ! ( . X @ . O . i .       , C l.L R A L h A , K - + - , V W 6 + - C A P <XC @ , & @   ",
"IXvXp.p.p i @ u 3   q p # ! e i .       L n.b.F v.'.V 1 1 ).R E x.x.1 1 +     , l E A DX` X . .   O ",
"IXvX4.qX# X e / . e @ 1.p . ( X +     + I #XJ R /.U V z.Q./.W.V j N B v.J J o     6 ; DX3 , .     O ",
"IX8.4.uXp & ^ ^ Q 7 . ^ * # w         A c.~.W./.c.j.h.OXOXj.G 1 1 k k G R x.B l - Z o DX+ ; o &   , ",
"IX<.w.uX>.8 w # .   e e $ * $     + < B $X` W.z.< z K J /.=X+XKX;X+X(.oXQ.l.G A k 1 < 5Xo < 5 +     ",
"IX,X,Xs.( $ ^ 4     / w O s .     - I G [.6 .           o L =XKXk.!.(.h.oX!.l._.E l K ~   1 6 5   . ",
"IXr.i.a.>.* a X . X & 4 @ f       + v.E                       R m.m.n.c.l.^.Q.k.N j :XV 6 o 1 6 O   ",
"IX1.4.>Xe p w.O X X 3 q $ *       @ S +                         g.OX.Xm.n.I l.XX/.G 5XR 1     , 5   ",
"IXa.mXy ( s a 4 . & $ 9 % w       ;         ' 7                 o '..X+X.X~.h.k.Q.B.0.S L - . o P , ",
"IX<.uXt Q $ # s @ & 4 a * ^       @         5X'                   @ $XXXj.oXj.l.Q. X4XA , k , 3 Z 6 ",
"IX/ I.=.t ( r.s $   i q $ d o   3 .                                 N XXQ.E h.k.(.W.D B.1Xx.U ,   + ",
"IXr i.:.d w.s 9 8 . . * 9 * q O @                                   Z =XQ.l.R /.T Q.|.*XPX< V <   l ",
"IXy a.d f | % >.& e O ^ a { { ! Q                                   o XX+X!.c.(.Q.L (.H z h U P o   ",
"IX,X( { -.-.q a 9 . . X q | w.>.v                                     h.!.OXl.^.oXH v.b.F ` j 1 l + ",
"IXp.1.s.} 9 r w ( *   . w s >.uX^                                     H .X!.c.].OXH J /.V.B 1 N - , ",
"IXxX;.s g i.( p 9 8 X X . f | mXe.                                  > C.!.XXoX~.n.~.C ~.h.C j + D l ",
"IXnXbXt w.<.f w t f q * . # | i.1.                                  m L.k.(.h.k.~.^.v.G oX, P V ; S ",
"IXjXxX;.} <.w =.^ p ^ 4 O e & f FX$                               o E.F.Y F XX=X$XJX~.A `.6 ` C 5 1 ",
"IXhX@.8.=.r./ :.:.d d q & . # { i.<X                              1.H.J.D.I k.oX~.JX[.P `.Z C.' @ S ",
"IXnXkX@.8.f d r * r.9 { = X 4 q a FX/                           * ] *.F.L.R T $X/.$X%Xl W.j ) _.1 + ",
"IXlXhX[ 7.qXy.i.s ^ a 9 w p X @ X 9 VX>X                      :.AXMXO.G.T.{.T G c.oX#X@ {.V 2 z.    ",
"IXm J.&.[ ] ....w.9 i 9 9 p = q * # } DX:X                o a 9XyXtXo.K.P.x.l.A N 4XJX+ {.A V v..   ",
"IXm I.&.hX5.i.,.i.<.s r { f * r = f a g GXGXt.&   X   # t eXtXyXyXyXM f.S.!.I B.E Q.$X+ [. XZ R   o ",
"IXN.K.%.&.&.$.7.-.a.,.<.=.a d s w f a | u.aXs.u.u.0XiXuXtXtXsXyXyX8X$.f.V.(.z.U '.N /.B |.'.U U 5 O ",
"IX{.1X+.[ %.fX@.t :.-.i.4. .w.} f f g y.u. .aX9X0X0X0XdXdXAXZXnXgXvXG.T.I R R j k v.#XA ^. XP 3 j < ",
"IXv.&XP.0 ;.5.6.%.-.t t <.f  .4.u.g 9 a a.} q.iXaXq.q.pXyXAXZXhXzXlXR.D.oXF I W.B #Xv.j  Xx.< o < l ",
"IX< }.2XN.U.$.@.6.7X%.@.} t -.] d.wX .....q.uXwX .X.eXnXtXMXnXkXH.K.Y.x .XY $Xv.l.W.].E x.I + + ` o ",
"IX: z 1X&XS.$.O.0 +.8.9.;.2.y t y y g ;.| ,.4.u.d.8XhXSX7XhXLXE.T.2XA.g.^.h.v.x.{.-XB v.E P C C l + ",
"IXJ + [.&X2XD.b O.[ %.O.O.%.] ..] -.;.9.7.8.eXnX8XCXCXCXhXfXR.Y.2XT.g.A.{.n.^.'.[./.+ %X).D j N ,   ",
"IXI 1 h *X1XY.N.I.o.[ O.[ O.&.%.5.+.@.[ O.7X8XhXCXkX7XjXfXG.M.Y.D.m.g.m.g.v.{.l.+Xb.o '.k   E B.@   ",
"IXk R 5 A x `.x D._ > > P.M #.b o.5.8.@.[ 6.6.jX6.J.#.G.m S.D.C.) ).H l.W.).$XJX$X2 j J U @ C 2 . o ",
"IXJ I L V V I v.K S.P.M.n z c b b -.M 0 3.3.o.U.$.m n C.g.A.D.z.[.W.h.R J A #XOXC.k k ).Z 1   ~ . + ",
"IX_.V.U j , l V.M.S.) v n N.n b t +.M m K.$.M.L.C.A.z.$Xm._ z ].v.I j L |.R $Xj ` L ` - - `   @     ",
"IX, ` E k E 1 k P j l.A.4XE :X~ x v c Y M.j c k R ].W.C h *X$Xb.E -Xl.].j n.` + '.R < + - .         ",
"IXr 6 z.W 5 ).l Z 1 U ` J V.>Xg.M.n x ~ U J b.I ).S ~ V b.OXV.R }.%Xl. XE J < E $X- ; -         @ . ",
"IX) / / 2X1X' ) 5 l 1 Z - A ~ z.%X%XC.2XZ E P h ~ [.R [.OXv.I ].R k V.V.V P P k ; 6 ,         . . + ",
"IXz >XK V }._.P.z P h I k L P ).).) W >X< ` U M.A [.^./.$XV.V.x.N E V.B.h B.P z O 5           o   . ",
"IX  o <   + A /.@Xx Z.A.U '.|.`.'.L U A.b.$X#XZ.'.{.$Xj.V.V.[.b.^.C E U 6 1 '.l O               @   ",
"IXo o       5 + 1 C.Z v ~ >X) P {.W.^.#X^.h.{.(.A.v.C.V N ` K ` k V.1 5 o - J             .   7     ",
"IX  o 5 6 , o o o @ < < + >XK.T./ K I `.V.z.W.B.` z L B.E C.E P B.A   o ; - S O .             X     "
};
