/* XPM */
static char *result[] = {
/* columns rows colors chars-per-pixel */
"50 50 227 2 ",
"   c #0F1002",
".  c #141303",
"X  c #1A1603",
"o  c #1D1B05",
"O  c #1C1B0A",
"+  c #171808",
"@  c #1C1D10",
"#  c #1E1E19",
"$  c #211C05",
"%  c #241E0A",
"&  c #2C1A09",
"*  c #331C09",
"=  c #391E0C",
"-  c #271E13",
";  c #1E200D",
":  c #1E2114",
">  c #25220B",
",  c #2A240E",
"<  c #292005",
"1  c #33240D",
"2  c #242214",
"3  c #2C2512",
"4  c #2E2813",
"5  c #24251B",
"6  c #2B251C",
"7  c #2D291C",
"8  c #332513",
"9  c #3A2415",
"0  c #322915",
"q  c #3B2B15",
"w  c #33251C",
"e  c #342C1D",
"r  c #3A2C1C",
"t  c #38261B",
"y  c #3D311A",
"u  c #1C262E",
"i  c #262721",
"p  c #272A26",
"a  c #2A2A24",
"s  c #2B2C2B",
"d  c #282720",
"f  c #3C2C22",
"g  c #322B29",
"h  c #3D3122",
"j  c #31312C",
"k  c #2D2E31",
"l  c #332F32",
"z  c #2B3237",
"x  c #363336",
"c  c #412C1A",
"v  c #482C1B",
"b  c #582E14",
"n  c #44321C",
"m  c #4A361F",
"M  c #5C311B",
"N  c #582D0C",
"B  c #633419",
"V  c #783917",
"C  c #6E330E",
"Z  c #442D27",
"A  c #443523",
"S  c #4B3524",
"D  c #43332B",
"F  c #4B352C",
"G  c #4D3D2C",
"H  c #483A26",
"J  c #513D2B",
"K  c #5F3B2C",
"L  c #593528",
"P  c #473636",
"I  c #523E31",
"U  c #573C35",
"Y  c #542A2A",
"T  c #673A27",
"R  c #6C3E35",
"E  c #7B3C31",
"W  c #7A401E",
"Q  c #53412E",
"!  c #4E4337",
"~  c #544332",
"^  c #5A4534",
"/  c #5D4936",
"(  c #54453A",
")  c #5B453A",
"_  c #5C4B3B",
"`  c #544939",
"'  c #564836",
"]  c #654638",
"[  c #764638",
"{  c #774936",
"}  c #1C334A",
"|  c #0D3A5D",
" . c #1C3B55",
".. c #193C58",
"X. c #2A3445",
"o. c #333B49",
"O. c #253C55",
"+. c #023666",
"@. c #023A66",
"#. c #0C3B64",
"$. c #023769",
"%. c #083769",
"&. c #023B6B",
"*. c #093D6D",
"=. c #123D64",
"-. c #113D6B",
";. c #1C3F6A",
":. c #043E71",
">. c #0A3E74",
",. c #463B44",
"<. c #623D43",
"1. c #18425C",
"2. c #28415B",
"3. c #394A5E",
"4. c #36455A",
"5. c #3D635C",
"6. c #024166",
"7. c #0C4365",
"8. c #03426D",
"9. c #0B426D",
"0. c #0A4B67",
"q. c #13436D",
"w. c #1C446B",
"e. c #16496D",
"r. c #024371",
"t. c #0B4373",
"y. c #064377",
"u. c #114574",
"i. c #144B7A",
"p. c #13467A",
"a. c #135173",
"s. c #284466",
"d. c #25456F",
"f. c #26496A",
"g. c #364764",
"h. c #275574",
"j. c #3B5878",
"k. c #265269",
"l. c #4B454B",
"z. c #5B4B43",
"x. c #584647",
"c. c #5E5043",
"v. c #594A53",
"b. c #41495F",
"n. c #604C42",
"m. c #684B49",
"M. c #7C4C42",
"N. c #784948",
"B. c #655449",
"V. c #795448",
"C. c #6A5756",
"Z. c #745E5D",
"A. c #795856",
"S. c #73645C",
"D. c #534C60",
"F. c #465168",
"G. c #4A5876",
"H. c #736061",
"J. c #7B6565",
"K. c #796979",
"L. c #4B726F",
"P. c #833D18",
"I. c #89431B",
"U. c #844839",
"Y. c #934E2E",
"T. c #A25936",
"R. c #AE6239",
"E. c #844E4A",
"W. c #894B46",
"Q. c #89554A",
"!. c #915244",
"~. c #93544B",
"^. c #995C4B",
"/. c #8A5859",
"(. c #945553",
"). c #945B53",
"_. c #955C5C",
"`. c #9A5B56",
"'. c #A35C5F",
"]. c #96624C",
"[. c #81605D",
"{. c #8B6157",
"}. c #94635C",
"|. c #9C645A",
" X c #AF6D5A",
".X c #995C65",
"XX c #A95D61",
"oX c #856666",
"OX c #946564",
"+X c #9B6C6B",
"@X c #986568",
"#X c #836D7B",
"$X c #976C76",
"%X c #8C7C7B",
"&X c #8E7975",
"*X c #947A79",
"=X c #8C7368",
"-X c #A36464",
";X c #A36B6B",
":X c #A86968",
">X c #B3686C",
",X c #A7746C",
"<X c #A36C73",
"1X c #A96C74",
"2X c #A86774",
"3X c #A4727C",
"4X c #AC757C",
"5X c #A87475",
"6X c #B87477",
"7X c #B06A71",
"8X c #C37D67",
"9X c #A2897D",
"0X c #C9826E",
"qX c #145381",
"wX c #2B6380",
"eX c #3B6288",
"rX c #9B7A89",
"tX c #957D84",
"yX c #A97683",
"uX c #B17886",
"iX c #9A8489",
"pX c #988899",
"aX c #A58683",
"sX c #A58697",
"dX c #9C92AB",
"fX c #A690A6",
"gX c #A98FA6",
/* pixels */
"8.*.:.8.&.8.@.8.0.r.8.8.8.&.&.$.%.+.q.q.9.8.8.r.r.8.:.*.r.t.r.&.r.&.8.r.&.&.&.$.&.$.+.+.+.+.+.+.+.+.",
"r.9.r.&.8.8.8.9.r.r.8.r.&.&.$.$.+.#.q.q.u.k.G.h.h.t.:.r.r.r.t.&.&.&.&.&.&.&.&.&.$.+.+.+.+.+.+.+.+.+.",
"r.y.y.:.8.9.7.h.t.t.r.r.8.&.&.$.%.%.#.=.&X0X0X X].A.F.r.r.&.&.&.&.&.&.&.&.+.&.+.$.$.+.$.+.@.+.+.+.+.",
"r.r.r.r.r.0.6.0.8.&.:.r.&.&.&.$.@.%.h./.Y.I.I.V V V W v.*.8.&.&.@.&.@.&.&.&.$.&.&.$.$.$.+.+.&.@.+.+.",
"r.r.r.r.r.9.0.6.8.&.r.&.&.&.&.&.#.%.9XT.C C M b B T B { v.9.&.&.&.&.@.&.&.+.&.&.+.$.$.$.@.+.+.+.+.+.",
"r.r.8.r.8.r.r.:.8.8.8.8.&.$.$.$.#.F. XT.C N b b M M b T [ s.&.@.@.&.&.+.&.&.+.$.&.*.@.$.&.@.@.+.+.+.",
"r.r.8.r.r.r.r.:.&.r.8.8.&.&.$.$.;. XR.Y.W M Q B ] [ [ [ T ,.&.@.&.@.&.&.+.&.&.$.$.t.*.&.@.+.&.+.+.+.",
"y.r.r.r.r.y.r.r.r.r.&.&.&.$.$.$.G.8XT.Y.!.].|.}.+X,X5X;XM.x.$.&.$.$.+.$.+.$.$.-.-.eXw.w.+.+.$.&.&.+.",
"r.r.r.r.r.r.r.r.8.&.&.&.$.$.$.$.j. XU.].(._.;X<X3X4XuXuX.Xv.$.$.$.*.$.$.&.$.+.=.=.w.-.-.*.*.:.$.$.$.",
"y.r.r.r.r.r.r.8.8.r.&.&.$.$.+.$.1.U.{ ].~.(..X<X<XyXuXuX+Xv.$.$.$.$.$.$.$.$.%.#.=.d.-.-.*.*.%.$.$.$.",
"r.0.r.r.r.r.r.8.&.&.&.&.$.$.$.&.=.V.U.].E.M.E.}.+X.X<XyX@X4.$.p.p.p.:.:.:.+.@.7.#.#.%.%.>.>.*.$.$.$.",
"r.r.r.r.8.r.r.:.&.:.&.&.$.$.$.$.-.V.Q.Q.E.E.M.E.:X/.E.@X+X;.$.u.p.p.>.>.$.%.| #.7.#.%.%.u.>.$.$.$.$.",
"r.8.r.r.r.r.r.&.&.&.$.$.$.$.$.$.-./.'.~./.).E./.2X+X.X2X$X%.$.>.t.p.*.*.$.$.$.$.*.$.%.%.$.*.$.$.$.$.",
"8.8.r.t.t.r.r.&.&.&.+.&.$.&.$.&.s.8X0X|.`.~.(.(.4X4XyXyXK.$.$.%.$.*.$.$.$.&.&.&.&.$.@.@.$.:.$.$.$.&.",
"r.r.r.y.t.r.r.r.$.&.+.$.$.&.+.$.;.XX8X^.~.~.~.~.:X2XyXuXG.$.$.$.$.*.$.&.&.$.&.&.&.&.@.@.*.$.+.&.&.&.",
"6.8.a.i.a.r.y.y.&.&.@.@.$.$.$.&.:.g._.^.~.~.~.|.7X4X.XtX$.$.$.$.$.*.$.$.&.&.$.&.&.&.&.&.:.:.&.:.:.:.",
":.8.r.8.8.6.8.8.8.8.:.&.8.&.&.&.$.&.w.).~.!.U.!.(.@X;XG.8.&.&.r.8.&.r.&.r.&.:.r.r.r.*.*.a.h.a.*.8.6.",
"8.:.r.&.8.8.8.8.8.&.*.:.&.&.&.&.$.$.9./.(.~.U.W.E (.$X9.&.r.:.&.&.8.&.r.&.r.&.8.8.r.*.8.h.h.e.0.9.9.",
"r.r.:.r.8.0.0.0.8.8.r.:.r.8.8.8.&.:.t.oX`.^.`.XXXX2XK.&.r.8.r.r.r.r.r.8.r.r.r.r.8.8.8.9.wXwXa.t.t.8.",
"r.8.r.r.:.0.0.0.8.6.:.r.r.*.r.r.r.*.9.oX].(.(.`.2X2X#Xu.8.r.8.8.r.8.r.r.r.r.r.r.r.8.9.9.wXh.a.r.r.*.",
"r.r.r.y.r.a.a.a.&.9.r.r.r.r.r.r.r.r.a.OX{.}._.;X4X1X<XK.9.r.r.r.r.r.r.r.r.r.r.r.r.r.r.r.r.r.r.r.y.y.",
"8.r.8.r.r.9.8.u.r.t.r.r.r.r.r.r.r.r.#X,X,X*X+XOX2X2X3XrX,.s.9.r.r.r.r.r.r.r.r.r.r.r.y.r.r.r.r.r.r.r.",
"8.8.8.r.r.8.8.t.r.t.r.r.r.r.8.t.h.j.;X}.[.J.[.).-X2XyXsX,.l P l.4.u.8.8.r.r.r.r.r.r.r.y.r.r.r.r.y.r.",
"f.w.f.9.t.t.t.u.t.8.y.y.i.e.4.] A.iX+X[.S.S./.E.`..XsXpX,.D m.] S I l.4.e.r.*.r.r.r.r.r.0.r.r.r.r.r.",
"q.;.;.t.t.s.s.D.d.d.:.u.3.F c c [ aXaXoXZ.H.J.E./.yXgXrX<.Y <.`.Z 9 c f Z o.O.>.t.8.t.r.r.r.r.r.r.r.",
"q.;.w.u.>.s.s.D.d.d.g.U c q 4 8 / aXiXJ.Z.H.oX[.rXfXgX$X7X.X~.:XL 9 9 w w f g X.9.t.8.r.r.r.r.r.y.r.",
"r.r.8.9.9.3.3.N.3.x.S q 1 8 4 8 _ aXtXZ.Z.H.oXtXpXdXrX.XXXXX8X>XR 9 3 7 6 g g l O.*.8.8.r.r.r.r.r.r.",
":.r.8.t.9.g.g.N.P f t 0 1 3 , 3 ~ =XoXZ.J.tXtXrXpXpXZ..X7XXX>XXXN.9 3 7 g a s l X.>.8.8.r.r.r.r.r.r.",
"r.r.r.r.r.t.u.2.f e 4 4 , , > , 8 r / C.%X&Xm.x.B.v.D F /.XX7X>X}.S - 7 g a s l X.$.&.&.8.8.r.r.8.r.",
"r.r.8.8.r.r.r.2.f 0 4 4 , , , , , 3 G B.iXiXC.z.n.n.F P <.W.(.:X+XK & g a s a s X.$.:.&.8.8.8.r.r.0.",
"0.r.r.8.r.8.8.O.r 0 4 4 3 , 3 > , , h z.tXiXZ.B.B.n.F N..X|.XX@X;XU w 7 a a s s } $.&.&.8.8.8.t.r.0.",
"r.r.r.r.r.r.r. .e 0 3 4 , , 3 > , , h z.%XtXC.n.n.) f f Y [ (.:X+X) r 2 7 p s k %.$.$.:.6.6.&.p.p.L.",
"r.r.r.r.r.r.8.1.e 0 4 , , , , , > 4 h c.9XK.c.( ( I f 7 8 R U.).OXm.9 - 5 i s z %.&.&.&.&.&.6.p.p.L.",
"r.r.r.r.r.r.r.1.e 4 4 , , 4 , , > 4 e _ S.C.! ~ / I r 5 > v Q.Q.}.A.Z 6 5 p p k #.@.&.&.8.8.8.r.9.7.",
"r.r.0.r.r.r.r.2.r 4 , , 4 , > > > > 4 H c.c.` c.] ) h - ; < { { }.OXz.e i s s k | $.&.&.r.r.r.8.r.0.",
"8.r.r.r.r.r.r.o.h 4 , , > , > > > ; > ! B.c.c._ _ J A 2 o < q K { ] 9 e a p k x #.+.&.&.8.8.r.8.r.r.",
"8.8.&.&.&.&.&.z y , , > ; > > > < ; , Q B.( _ ) ~ G r > O $ & * 9 q 1 e a p s s } $.:.:.r.r.8.r.r.r.",
"&.@.&.&.&.&.&.x 0 4 , > > > > > ; ; < Q n.G J ~ Q Q n , o o $ , q S q 7 p s s a s #.r.r.r.y.8.r.8.r.",
"&.&.8.&.&.&.&.l 4 4 , , > > > ; ; < > A c.~ _ / / ^ m 4 $ X + 3 8 m q 2 a p p p a z 7.r.r.r.8.r.8.r.",
"8.&.&.8.&.&.&.l 4 4 , , > > > > > > > h _ ~ / / ^ S q 3 - + X o 8 y 4 4 j 7 d p s k  .8.y.r.6.0.@.r.",
"&.8.8.&.&.8.8.} 7 , , , & > > > < o O h _ ' ' Q J S c r % + . X , $ < > x 7 5 5 p k  .8.r.y.6.6.8.r.",
"&.:.&.&.8.&.&.#.a , > , > < > $ $ o $ y ` Q Q G Q J n q % X X . X o o ; 7 5 : 5 p k  .6.8.&.i.k.f.u.",
"r.&.&.r.&.9.&.#.s , > > > > > $ $ ; $ 0 ` Q Q Q ^ J S c & X .   . X + ; : 2 O : : k | 6.6.| k.5.5.>.",
"8.&.*.8.8.@.7.z 4 % % % > > > $ $ O $ 0 ` Q ' ' / ^ L n 1 X . .   . . . ; 4 ; ; : z | 6.@.6.k.5.5.>.",
"&.&.r.*.*.q.o.7 > > $ $ % , % $ o o o 4 ` G G G J I S n q $ . .     . . + ; ; : : z 6.@.6.&.>.7.=.*.",
"r.&.&.*.*.9.P f q 1 $ $ > * > O o o o 4 ( G Q G G J m c q & o . .     . + ; ; : # } 6.6.6.6.>.=.7.&.",
"8.&.:.:.9.q.x f n J m Q {.K 1 o o o o 7 ! ! ~ ) ~ H m n c 1 X . . . .     + @ @ u @.6.6.8.8.r.9.9.&.",
"*.&.&.t.t.8.O.D S V.|.-X~.[ * $ $ o $ 4 ` H F H c H H n q 1 $ X . . + O .   @ u | 8.6.8.@.8.6.@.@.8.",
"&.&.&.t.t.r.9.! ^ |.].!.U.T * X $ $ $ , ( G G G Q Q H n r q , O o . + > o @ p | @.&.6.6.6.8.@.6.8.6.",
"&.&.&.8.*.&.&.v.) V.M.E.W.L & X X X O 3 ! ! ! D e 0 e y 3 h % % 2 O X + O 5 s z &.&.8.@.6.@.6.8.6.@."
};
