/* XPM */
static char *result[] = {
/* columns rows colors chars-per-pixel */
"50 50 235 2 ",
"   c #132E2F",
".  c #0B2B39",
"X  c #13333A",
"o  c #1A3937",
"O  c #122F30",
"+  c #25383D",
"@  c #32332E",
"#  c #151515",
"$  c #433F29",
"%  c #453B3B",
"&  c #553B32",
"*  c #563D2B",
"=  c #613E33",
"-  c #1E433D",
";  c #28452C",
":  c #35542B",
">  c #3C5C2B",
",  c #375327",
"<  c #254837",
"1  c #2C543B",
"2  c #355A34",
"3  c #345D3D",
"4  c #375736",
"5  c #34482C",
"6  c #3F612C",
"7  c #3C6233",
"8  c #3B643B",
"9  c #3B663C",
"0  c #4A4B26",
"q  c #584A28",
"w  c #4E592C",
"e  c #42552C",
"r  c #545B2D",
"t  c #5B5A2D",
"y  c #56552B",
"u  c #5A4536",
"i  c #475B31",
"p  c #555732",
"a  c #4D4D35",
"s  c #63442B",
"d  c #664A2A",
"f  c #654829",
"g  c #7C462A",
"h  c #7D4A2C",
"j  c #744A2B",
"k  c #65562D",
"l  c #79562F",
"z  c #644135",
"x  c #7D4C34",
"c  c #7C5931",
"v  c #685A30",
"b  c #41642E",
"n  c #44692F",
"m  c #4C632F",
"M  c #56622F",
"N  c #426532",
"B  c #456C32",
"V  c #496D33",
"C  c #426E3B",
"Z  c #4B673A",
"A  c #546432",
"S  c #536B32",
"D  c #5E6130",
"F  c #477035",
"G  c #4B7334",
"H  c #4E7A36",
"J  c #44713C",
"K  c #49753B",
"L  c #4D7B3B",
"P  c #547335",
"I  c #527C37",
"U  c #517E38",
"Y  c #577439",
"T  c #636231",
"R  c #657738",
"E  c #042D4C",
"W  c #0B2D42",
"Q  c #0B3144",
"!  c #0C354A",
"~  c #133C4D",
"^  c #153846",
"/  c #022E52",
"(  c #072E59",
")  c #043255",
"_  c #0B3554",
"`  c #0B3B56",
"'  c #02345D",
"]  c #04395D",
"[  c #0B3C5C",
"{  c #0F3458",
"}  c #123C55",
"|  c #133859",
" . c #283845",
".. c #363A4B",
"X. c #2F395C",
"o. c #023663",
"O. c #023A65",
"+. c #0A3B63",
"@. c #023668",
"#. c #023C6B",
"$. c #0A3F6C",
"%. c #093568",
"&. c #123E67",
"*. c #063C71",
"=. c #072A6E",
"-. c #383A6A",
";. c #2B387E",
":. c #29377D",
">. c #323873",
",. c #313A7E",
"<. c #253169",
"1. c #583E48",
"2. c #4B3C58",
"3. c #4A3E4B",
"4. c #433C63",
"5. c #1C4443",
"6. c #1B454C",
"7. c #1E4B4B",
"8. c #194448",
"9. c #0D415A",
"0. c #184653",
"q. c #154A54",
"w. c #174855",
"e. c #234C45",
"r. c #224D4A",
"t. c #294E44",
"y. c #3A4548",
"u. c #2B5442",
"i. c #2E5A42",
"p. c #275448",
"a. c #325C46",
"s. c #274A53",
"d. c #345D5B",
"f. c #31455D",
"g. c #396545",
"h. c #386557",
"j. c #024166",
"k. c #0B4364",
"l. c #02426D",
"z. c #0A426B",
"x. c #15466A",
"c. c #024371",
"v. c #094573",
"b. c #0B497D",
"n. c #124C79",
"m. c #174971",
"M. c #1C5474",
"N. c #264364",
"B. c #2C5866",
"V. c #275679",
"C. c #364A71",
"Z. c #376768",
"A. c #2C617E",
"S. c #306176",
"D. c #454546",
"F. c #594255",
"G. c #5E4F53",
"H. c #496A42",
"J. c #546848",
"K. c #497845",
"L. c #597648",
"P. c #43765F",
"I. c #467755",
"U. c #596453",
"Y. c #627D53",
"T. c #647858",
"R. c #6C7A63",
"E. c #7E7E7E",
"W. c #834B2D",
"Q. c #8A4E2E",
"!. c #87512F",
"~. c #844E34",
"^. c #8B5233",
"/. c #835234",
"(. c #935332",
"). c #9C5634",
"_. c #9E5834",
"`. c #925833",
"'. c #A55B36",
"]. c #55843B",
"[. c #57893C",
"{. c #5A8D3E",
"}. c #58833A",
"|. c #508140",
" X c #5A8442",
".X c #688459",
"XX c #62854E",
"oX c #7B837A",
"OX c #718367",
"+X c #1C3889",
"@X c #1B3A93",
"#X c #05329C",
"$X c #283983",
"%X c #243887",
"&X c #223991",
"*X c #183AA5",
"=X c #0A39B8",
"-X c #123CB8",
";X c #1D519B",
":X c #1C4D91",
">X c #275986",
",X c #225692",
"<X c #244185",
"1X c #174DAA",
"2X c #124BB9",
"3X c #0E45BA",
"4X c #0B3CC5",
"5X c #033ED8",
"6X c #0944CD",
"7X c #0F4CC7",
"8X c #0743D7",
"9X c #104CC8",
"0X c #0442E2",
"qX c #0243EB",
"wX c #0842E1",
"eX c #0144F3",
"rX c #0045FB",
"tX c gray52",
"yX c #8B9684",
"uX c #979B99",
"iX c #94A18D",
"pX c #A8A8A7",
"aX c #ADB3AE",
"sX c #B6B6B5",
"dX c #B8C1B3",
"fX c #C5C6C5",
"gX c #C9CBC8",
"hX c #D4D5D3",
"jX c #D9DBD8",
"kX c #CFD3CD",
"lX c #E3E4E3",
"zX c gray92",
"xX c #E8E9E7",
"cX c #F4F4F4",
"vX c gray99",
/* pixels */
"( ( ' ' ' ' ' ' ] +.x.x.x.] ] O.O.] ) ! o ; : : 5 ; o o Q ' ' ' ) E . . O O   . . E E ) / / / / E E ",
"%.@.' ( ( ' ' ' o.+.m.V.m.+.O.] ) ^ ; 6 U ].[.{.{.{.].].7 ; o O ; : 6 H [.[.[.B : o . / / / / / / / ",
"f.f.&.+.' ' ' ( ' ' ' ] O.] ) ! 1 7 [.{.{.[.].H F B B G ].[.H G ].[.{.{.[.{.{.{.[.L 8 ! / ' / ) / / ",
"<.x.m.&.' ' ' ' ' ' o.o.] ] - : H {.[.L V n n H ].[.[.].V 6 b n n B V V G B B G F G 7 X W ) ' ' ' ' ",
"+.O.@.#.@.@.@.o.O.o.o.o.) ! 3 ].[.[.].].[.{.{.{.{.].U H H G V n , > H ].{.{.{.[.].H G n > 5 o Q ) o.",
"j.l.l.l.#.#.#.#.O.O.' ) X ; 9 {.{.{.{.{.{.[.].H V N Z J.J.U.U.J.J.Z i b F 7 i Z H.J.U.L.L.Z 2 @ X W ",
"j.j.l.l.l.l.l.l.O.) 8.: 7 7 ].{.{.{.{.U G Z Z OXiXfXlXcXzXlXlXlXxXlXhXsXyXaXhXlXzXxXjXgXkXlXjXfXuXoX",
"j.l.l.l.c.l.l.O.9.- : ].H ].[.{.{.{.L.R.oXsXxXcXvXvXzXkXE.# @ D.sXcXvXxXfXlXvXcXjXtXD.# @ tXfXvXcXcX",
"l.l.l.l.c.l.l.9.< J ].[.{.{.{.{.{.{.[.].H .XyXdXjXcXzXjXuXU.tXpXhXxXjXfXaXgXcXcXxXaXuXtXpXhXhXkXaXuX",
"c.l.l.c.*.c.k.r.9 ].{.{.{.{.{.{.{.{.{.{.{.H n n Z T.OXyXyXyXoXR.Y.L.V V P L.L.Y.T..XY.Y.L.XXH.4 8.! ",
"*.#.#.l.j.] ` 9 ].{.{.{.{.{.{.{.{.{.{.{.{.{.{.[.[.].H G G G V N b n U ].].[.[.[.{.{.{.[.H 7 5.` o.o.",
"c.c.c.l.k.0.p.K.{.{.{.{.{.{.{.{.{.{.{.{.{.{.{.{. X{.].H n > b G ].{.{.{.].G > , , , , 5 ; X ) o.o.@.",
"c.c.c.l.k.7.1 K {.{.{.{.{.{.{.].H V G H [.[.{.{.{.{.[.[.[.{.{.{.{.{.{.{.{.{.{.{.{.{.{.{.].G u._ o.O.",
"c.c.c.c.v.q.8 K.{.{.{.{.{.{.].].G V S M f y S P ].[.{.[.{.{.{.{.{.{.{.{.{.{.{.{.{.{.{.{.{.{.9 5.` o.",
"c.c.c.c.c.q.9 L {.{.{.{.{.{.{.{.[.R c !.!.Q.Q.!.c v v S G H ].[.{.{.{. X{.{.[.{.{.{.{.{.].G e @ ^ / ",
"c.c.c.c.c.q.i.|.{.{.{.{.{.{.{.{.{.}.P D j Q.(.W.g g W.).).(.!.h j d k q 0 0 0 0 0 q d j Q.(.W.= ..{ ",
"l.c.c.l.l.9.8.K.{.{.{.{.{.{.{.{.{.{.{.[.].P T l l Q.W.W.g g g g g g g W.h g h h g g g g g g @ | +.#.",
"l.l.c.c.c.O.9.g.I [.{.{.{.{.{.{.{.{.{.{.{.{.{.[.].P P S t t k k v j j j g h h h W.W.g g = & ..@.@.O.",
"v.v.v.v.c.#.' o 5 w P {.{.{.{.{.{.{.{.{.{.{.{.{.{.{.{.{.{.{.}.}.].H H ].U I P P m : + ~ ( ] @.#.@.@.",
"n.n.n.v.#.=.=.=X4X+XX.* q y m G ].[.{.{.{.{.{.{.{.{.{.{.{.{.{.{.{.{.{. X].G 2 5._ o.#.#.#.#.$.l.#.l.",
"c.c.l.` X @ 5 3.-.+X@X=X@X;.2.1.= * u s f q k k t t r t r r r y y a a  .W E ' #.c.l.c.c.l.$.n.M.m.x.",
"c.l.#.7.7 H {.I P M a % -.%X4XqX8X4X4X-X-X@X@X%X$X:.:.;.;.;.$X&X*X4X0X5X5X#X=.o.O.#.c.l.l.l.M.A.M.m.",
"c.z.9.i.U ].{.{.{.{.}.P t u <X4XeXrXrXrXrXrXrXrXrXrXrXrXrXrXrXrXrXrXrXqX5X&X..+ o [ l.c.c.c.c.c.l.l.",
"l.k.8.g.{.{.{.{.{.{.{.{.Y Z C.*XwXrXrXrXrXrXrXrXrXrXrXrXrXrXrXrXrXrXrX-X<.D.r S J 7.9.l.c.c.c.c.c.c.",
"N.s.u.J {.{.{.{.{.{.{.{.P a $X4XqXrXrXrXrXrXrXrXrXrXrXrXrXrXrXrXrXrXrX6X+Xd.H ].K.p.w.z.c.c.c.l.c.c.",
"| s.3 K {.{.{.{.{.{.{.{.d.:X6XrXrXrXrXrXrXrXrXrXrXrXrXrXrXrXrXrXrXrXrX0X3XS.].[.].a.w.z.v.c.c.c.c.c.",
"j.q.3 K {.{.{.{.{.{.U K >X6XqXrXrXrXrXrXrXrXrXrXrXrXrXrXrXrXrXrXrXrXrXqX8X>XK  X|.a.w.$.$.#.c.c.c.c.",
"] q.3 K {.{.{.{. X XK.h.;XqXeXrXrXrXrXrXrXrXrXrXrXrXrXrXrXrXrXrXrXrXrXeX8X;Xg.K.|.a.0.O.#.*.l.c.l.c.",
"9.q.3 K {.{.{.{.{.{.K.d.1XqXeXrXrXrXrXrXrXrXrXrXrXrXrXrXrXrXrXrXrXrXrXrXeX1XB.|.|.a.0.O.#.#.*.j.l.l.",
"j.q.3 K {.{.{.{.{.{.I.V.2XeXrXrXrXrXrXrXrXrXrXrXrXrXrXrXrXrXrXrXrXrXrXrXrX7X;XZ.|.3 6.+.#.#.#.#.j.j.",
"j.q.a.K {.{. X{.{.{.I.>X3XrXrXrXrXrXrXrXrXrXrXrXrXrXrXrXrXrXrXrXrXrXrXrXrX8X2XZ.L 3 7.O.j.#.l.l.l.l.",
"l.9.i.L {.{.{.{.{.[.P.>X7XrXrXrXrXrXrXrXrXrXrXrXrXrXrXrXrXrXrXrXrXrXrXrXrXqX8XA.H.g.r.k.j.l.l.c.c.c.",
"j.9.r.9  X{.{.{.{.{.P.,X9XrXrXrXrXrXrXrXrXrXrXrXrXrXrXrXrXrXrXrXrXrXrXrXrXeX0X>Xg.g.r.k.#.c.c.v.c.c.",
"O.` < 9 {.{.{.{.{.{.P.,X9XrXrXrXrXrXrXrXrXrXrXrXrXrXrXrXrXrXrXrXrXrXrXrXrXrXeX,Xd.a.r.k.*.c.c.c.l.l.",
"o 1 L [.{.{.{.{.{.{.P.,X9XrXrXrXrXrXrXrXrXrXrXrXrXrXrXrXrXrXrXrXrXrXrXrXrXrXeX1XB.a.p.k.#.l.*.c.l.l.",
"1 8 K ].H [.{. X{.{.Y p z z 1.G.F.F.F.F.1.2.2.2.2.4.4.4.-.>.>.,.$X$X$X$X$X%X$X>.s.i.u.k.j.#.l.c.m.n.",
"j.[ } i.H ].[.G G ].R c `.'.'.'.'.'.'.'.'.'.'.'.'.'.'.'.'.'.'.'.'.'.'.'.'.'.(.v i 2 r.j.j.j.j.j.x.B.",
"l.O.| r.N i p t k S T /._.'.'.'.'.'.'.'.'.'._.(.Q.(._.'.'.'.'.'.'.'.'.'.'.'.~.a ~ ` ] #.#.j.j.#.*.*.",
"*.$.*.z.x.s.& ^.).(.).'.'.'.'.'.'.'.'.'.'._.(.z & ~._.'.'.'.'.'.'.'.'.'.'.).Q.3.{ ] j.j.#.j.j.c.c.c.",
"#.l.v.c.$...u ~.).)._._.'.'.'.'.'.'.'.'.'./.z y.D.x ).'.'.'.'.'.'.'.'.'.'.(.x ..' O.O.#.j.j.j.#.j.#.",
"#.#.*.#.$.+.}  .5 i m A w w w r M w 0 0 @ X { | ~ % & f d d d d d d d f * @ + _ O.O.O.O.j.j.#.j.j.l.",
"@.#.#.#.#.#.@.` r.H.].{.{.{.{.{.{.{.{.J t.} o.@.{ { e.K ].{.{.{.{.[.{.C < _ ' o.O.' ' O.O.O.O.#.j.O.",
"#.@.#.@.@.#.o.+.w.9 H {.{.{.{.{. X{.{.K t.0.o.o.o.( 8.9 L {.{.{.{.{.{.K 1 ~ ' o.' o.o.o.o.O.O.#.O.#.",
"#.@.@.@.@.o.@.] 0.8 H {.{.{.{.{.{.{.{.g.^ } @.o.' / 5.C U {.{.{.{.{.{.K 1 s.o.' o.o.o.O.O.O.O.O.O.O.",
"@.#.o.o.O.$.x.| 6.8 H {.{.{.{.{.{.[.].g.~ ` ' O.] 8.1 L [.{.{.{.{.{.{.K 1 8.] O.' O.' ] ' ] ' O.' ' ",
"#.o.O.@.o.%.+.| r.C H [.{.{.{.[.H B > ; O Q E E ! 1 J [.{.{.{.{.{.[.I N ; < - 5.^ Q E ] ' ' ' ' ' ' ",
"] o.o.#.#.@.o.~ u.L {.{.[.].H G ].[.{.{.{.{.[.H G V n n H {.H V V G U [.{.{.{.[.{.[.9 - ! ' ' ' ' ' ",
"' @.#.v.b.v.+.6.3 ].{.{.{.{.{.{.{.{.{.[.[.[.{.{.{.[.[.[.H F H [.{.{.{. X{.{.{.[.].[.].7 7.) ' ' ' ' ",
"+.%.@.#.v.#.+.i.G [.{.{.{.{.{.{.{.{.{.{.U H L [.].H H ].I G ].[.{.{.{.].].I H ].].H N 8 7.) ' ' ' ' ",
"+.o.o.o.@.o.[ e.4 H ].{.{.{.{.{.{.{.{.{.{.U H ].{.[.].G n > N V C F F F C 6 : 6 N 2 < o ! ) ( ' ' ( "
};
