/* XPM */
static char *result[] = {
/* columns rows colors chars-per-pixel */
"70 73 184 2 ",
"   c #040005",
".  c #04040B",
"X  c #050711",
"o  c #040914",
"O  c #040D1B",
"+  c #090F1D",
"@  c #090A15",
"#  c #04111E",
"$  c #0D111B",
"%  c #040F20",
"&  c #031325",
"*  c #03162A",
"=  c #04192E",
"-  c #041C35",
";  c #091D34",
":  c #031E3A",
">  c #091E38",
",  c #022137",
"<  c #03223C",
"1  c #0B233C",
"2  c #112139",
"3  c #083735",
"4  c #3B2532",
"5  c #283825",
"6  c #0F4015",
"7  c #032443",
"8  c #042A45",
"9  c #012449",
"0  c #022B4C",
"q  c #0A2849",
"w  c #02344C",
"e  c #01384F",
"r  c #08354C",
"t  c #133049",
"y  c #022D54",
"u  c #0B2E54",
"i  c #032E5B",
"p  c #0C2B5B",
"a  c #0B2757",
"s  c #162B56",
"d  c #023355",
"f  c #093354",
"g  c #023A54",
"h  c #0A3B57",
"j  c #02345C",
"k  c #0A355C",
"l  c #02395E",
"z  c #0C3A5D",
"x  c #113152",
"c  c #12345B",
"v  c #133D5F",
"b  c #22364B",
"n  c #32374E",
"m  c #2C2D50",
"M  c #243453",
"N  c #223857",
"B  c #32395B",
"V  c #032E63",
"C  c #092D62",
"Z  c #042E68",
"A  c #023563",
"S  c #0A3563",
"D  c #023B64",
"F  c #0A3A63",
"G  c #023669",
"H  c #0A356A",
"J  c #023C6B",
"K  c #0A3C6B",
"L  c #183765",
"P  c #133A65",
"I  c #143C6A",
"U  c #193A69",
"Y  c #063472",
"T  c #023D73",
"R  c #0A3E71",
"E  c #04367B",
"W  c #093378",
"Q  c #023D7C",
"!  c #0A3E7B",
"~  c #293961",
"^  c #3E3E63",
"/  c #50345B",
"(  c #02425E",
")  c #1E4A56",
"_  c #274859",
"`  c #355B58",
"'  c #014165",
"]  c #0C4467",
"[  c #02426C",
"{  c #0C436C",
"}  c #084965",
"|  c #124465",
" . c #1B4266",
".. c #13436C",
"X. c #1A446C",
"o. c #174967",
"O. c #024372",
"+. c #0A4373",
"@. c #044972",
"#. c #0D4875",
"$. c #03437A",
"%. c #044979",
"&. c #0A4A7B",
"*. c #144B72",
"=. c #1C4A71",
"-. c #144878",
";. c #195279",
":. c #185F7C",
">. c #204E6F",
",. c #264568",
"<. c #344B6B",
"1. c #2C5463",
"2. c #2F516F",
"3. c #27526C",
"4. c #355364",
"5. c #274E77",
"6. c #284D74",
"7. c #255175",
"8. c #24547B",
"9. c #295878",
"0. c #3A5874",
"q. c #3D5C7A",
"w. c #305375",
"e. c #3F6374",
"r. c #42455E",
"t. c #6F435C",
"y. c #52605C",
"u. c #616D42",
"i. c #49546B",
"p. c #41577F",
"a. c #76426C",
"s. c #526967",
"d. c #5F6D7B",
"f. c #5D7D7B",
"g. c #66757E",
"h. c #8D4D55",
"j. c #A34755",
"k. c #778C6F",
"l. c #769379",
"z. c #82AE6E",
"x. c #0E3B83",
"c. c #053A85",
"v. c #094B81",
"b. c #104D80",
"n. c #1C5182",
"m. c #105285",
"M. c #215887",
"N. c #285B83",
"B. c #305B80",
"V. c #266085",
"C. c #3A668A",
"Z. c #386888",
"A. c #2A6390",
"S. c #336B9B",
"D. c #3F7095",
"F. c #4A6C82",
"G. c #4F7A8F",
"H. c #50718D",
"J. c #436F97",
"K. c #417196",
"L. c #4D7890",
"P. c #507895",
"I. c #547B99",
"U. c #677989",
"Y. c #4E87B4",
"T. c #5992BF",
"R. c #678AA7",
"E. c #7599AD",
"W. c #7399B6",
"Q. c #70A0BE",
"!. c #739BCE",
"~. c #6CA6CC",
"^. c #859686",
"/. c #90B1BF",
"(. c #A0CD91",
"). c #B0DCA1",
"_. c #8BBADE",
"`. c #96BAD1",
"'. c #A2B5C5",
"]. c #A4D3DF",
"[. c #B6D0E2",
"{. c #BBEBF8",
"}. c #CCE2E7",
"|. c #D9EDEF",
/* pixels */
"d h f h i i j j L.<.s u q < w a j j j j j j l d d d D D J H ' 5.k.5 q Z ! T J A D j j i y y y y y d y y y d 0 w 8 < 8 y y y 0 y y u d j y y ",
"d o.r q y i i y y 7 d d j j A Z d j j j j j j D.V.F l D S J F J J h c f f G D D D A j d d y y y y y y y d 0 0 f 8 0 < 0 0 y 0 y y y y i y f ",
"d G.< w f y y y 0 0 Z W H z G E 0 ; < d j j j D.o.F D D D F F k K A M.8.h ' J D D j < - 8 y y y y y i y 0 f y f 8 y j y y y y 9 y y y y y y ",
"d r 8 w y i i j Z i d l m t.n :.2   . - d j j j F l ' l D D l o.<.c  .....K D D D 8     o i y i i y j d y y y y y y y y y y y y y y y y y 0 ",
"w w 0 d y j j j A f f A m j.h.b b     @ 0 j j S D ' D D l ' @.9.R.y D P r.,.D D j #     O i j i j j j j d d y y y i j d y d d j f j d w 0 0 ",
"d y y y k S j j V d f C s 4 i.K w.@   . = y j j j D ' D D ' ] I 6.| { z N F D D -     . 8 j j j j j j j j j j y j y d d d d j d g d d d d d ",
"y i y i z ..f k j d l A i z I G D q .   . : j j D D D ' ' ' z ,.0.v F D D D D d .     * D A A A A j j j j j j j j j j l g g j 8 ` 1.f d d d ",
"j A j f f j k F D D D D D D ' J J D =     & y A D A D D D D F z l k S D J D F &     O j J T J T A A j j A A D D D A A D d e S 8 ` 4.f d d d ",
"j F j l ( l l D D D D D ' ' D ' [ J f o   . : A A J D J J J J D F D D l D ' 1 .     d J J ' [ J J G A A A D D D D D l j g g A 0 3 w y j d d ",
"D D l ' D D l D ' l D D D ' J ' [ [ D 7 X   o 0 J A D J ' [ J J O.K D ' D w o     * [ [ ' ' ' J D K c z D D l F l D D j d l A d w j j k j j ",
"D F D ' ' D D ( ' D { A K ' ' ' [ O.@.j &     = j G A J J O.T O.O.' ' D D * .   o A J O.J R T K P F s._ f D D A D D l j d A A j l D D j l l ",
"D D ' D J D D D ' K { ..F D [ [ J O.[ ' w o   . : 0 7 = O O O O O & , d 8 X     k [ T [ T Q $.K z o.^.f.] D D D A l F j l A j g j A j j j l ",
"D ' D K J J D D D D j J.{ D [ [ O.[ [ O.' -     . X .               . X .     - j J O.O.J ' $.[ { T d.q.J A A j A D D j j G j g j A k j j l ",
"A D D ' [ J J ' ' D F _.8.*.[ [ ' [ O.$.v.0 X                                  .Y.O.J [ ' ' O.J J J F H A A A A A A A A j j j d j D j D l l ",
"' J ' ' ' ' D ' K D d y z { [ D [ T T j *                                       + J J J T J J J J J J A A A A A A D A A A j y y k D A j l j ",
"D D ' ' ' ' ' ' D [ { F D O.T +.[ ' w %       . .                         . .       j J [ J J J A G G G A G A G A G G A H A S k j A l l l j ",
"J D ' J ' ' J ' [ [ D D O.J &.$.T i +     O 9 j 8 o                   O < y 7 .       d J J J A G J A G G A A J A A A G A S U X.i j k j j l ",
"K K J J J J J [ [ @.@.O.$.O.%.O.A &       < J [ J 7 .                 < [ [ J - .     . 0 J J G J G G G G D J A A G G K H S I.P.y A D D l j ",
"} D J D J K J { [ [ [ $.$.O.O.J -       . 0 O.T J 0 .               X q [ J J 0 .       X j J J G J G G A G D G J A G G H j u u q y l l l l ",
"D D D G A J J J ' @.[ $.@.O.[ d           - D ' J : .               . > z D A -           - G J J A G J J D G D A A D G A j 1 O X & 8 d l D ",
"K J G A J J J J T [ @.O.O.O.D &           o - < < .                   $ - : - .           @ 0 G G H C.=.A J G G G A A A i : X       X = l D ",
"A A G G J G J J O.$.$.T O.@.7                                                               = C I I H.2.A A A G J G G C > o             < D ",
"D A G J G J J O.T %.&.$.$.O.X                                                               O 0 ....c S K H R J G G A : o               O l ",
"A A A G J J O.O.O.%.m.$.O.J                                                                 X 1 7.B.P I H n.R J G A : X                   F ",
"A A G J J O.O.O.O.$.%.O.O.8                                                                   * | *.F K A R G G G : X                     D ",
"i J J D 8 - < 0 K O.R O.O.f 0 8 0 0 8 8 7 8 7 7 7 7 7 7 : x U.U.g.1 7 9 9 7 7 7 7 q x q 7 7 7 0 F F H G K R G G 7 X                     < F ",
"A D y o . . . X & d J O.O.J { [ [ [ J J G A G A A G G G A H 0.'.|.E.A G J G G G G J { H j D A G J J J F G K A : .                     : j F ",
"K A .             + k O.[ [ [ [ +.O.O.T J J A A G G J G R J L p.,.,.F D l A G G G G A J J A A T Y J A D J Y 7 .                     - j D D ",
"Y A                 d @.J 0 < 1 1 1 < : : - - - - - > - > > 1 M 1 2 > > ; > > > ; > > > 1 ; : q A J J J T : .                     : i j j j ",
"A D                 d @.@.:                                                                   * D O.O.O.7 .                     - A j j j j ",
"D D                 j O.O.:                                                                   & D O.J q X                     < D D j j j l ",
"( l                 d O.T -                                                                   * J [ q o                     , J J J A j j j ",
"( l                 d &.O.,                                                                   * D D *                   . - D [ [ J D D F d ",
"' D                 f O.[ ,                                                                   * ' D &                 . - D [ J J [ ' *.D j ",
"D F                 d O.O.1                                                                   * J ' - .             . - -.M.+.J J J [ *.j l ",
"7.K.                d [ { ;                                                                   * [ +.r o             - D n.S.;.[ [ [ +.K D D ",
"w.R.                j @.+.;                                                                   & D +.K < X         < J K K G O.O.O.[ O.' ' K ",
"z 3.                j T R -                                                                   * A J +.S 0 * o # < J @.+.T R O.[ O.O.O.' ' ' ",
"F l                 d ! +.:                                                                   & j G K J J l d j ' @.O.+.[ O.O.O.[ @.T O.[ ' ",
"D A                 j R O.<                                                                   & A G G G [ O.@.O.O.O.O.O.O.O.O.[ @.$.T Q Q [ ",
"G d                 j T O.-                                                                   * j G G J J O.O.O.@.[ O.O.O.O.@.O.@.[ T Q O.J ",
"J 8                 d @.[ ,                                                                   * A G J J [ [ [ [ O.O.O.@.[ @.O.[ O.O.[ ' ' O.",
"A 0                 d @.[ ,                                                                   * A G G G D [ ( Q -.6 U R [ @.%.%.%.O.@.' J Y ",
"A 0                 f O.@.,                                                                   * G J J J ' ' ( E H ).s ! @.[ $.%.+.D ' [ Y G ",
"A 0                 d O.O.,                                                                   & j J G G J [ ' %.K 3 P T O.@.O.*.=.W.V.J A A ",
"A y                 d J O.,                                                                   * G G G J J [ [ %.j D j O.O.[ ;.Q.`.[.Z.D k j ",
"A V X             # j J J <                                                                   * A G J J O.O.@.[ [ $.O.@.@.[ ] v /.}.K.F f D ",
"A A 7 O X .   X O 9 A J J -                                                                   * G J J J T @.O.[ @.$.O.O.@.O.[ ..E.e.F k k G ",
"A G A p 7 ; = 7 i J J J J -                                                                   * A J J R O.[ [ O.O.[ $.O.O.[ @.J { ..*.j D H ",
"A G G G J G G G J J J J J :                                                                   * A J J O.O.$.' [ [ } O.@.O.O.O.T $.O.J D D A ",
"A A A J J G J J J J J J J :                                                                   * D D J ' O.%.K ( D +.Q $.O.O.O.O.$.@.O.' J D ",
"i A A D G J J T J T J O.J -                                                                   * l J J ' J O.E Z.S ! $.[ O.O.O.O.O.O.[ ' D D ",
"A A A J J J T J J O.[ J [ -                                                                   * A D J ' ' D C.(.F.x.} [ $.@.O.O.@.O.[ K ' D ",
"G A A J J J J T T J J T T 7                                                                   * D ' ' D [ D 7.z.0.c.} ' [ [ O.[ O.[ [ D #.j ",
"A A D J J J T J J [ J [ J 0                                                                   * D ' ' ' ' ' E ) P T ' [ [ O.J [ O.[ l *.{ D ",
"A J H K J T J T O.J J [ J j                                                                 . - D J J [ J O.c.Q ! G $.J [ J ' [ J ' ;.~.;.l ",
"k z D ' [ J T J J T J J R J +                                                               o 0 J ' J ' ' %.@.D { D ' [ J J ' J J ' D *.{ { ",
"h ( l ' ' J J J [ J A.#.J K 7                                                             . - A D J [ ' J J ' ' ' D D ' ' ' ' ' ' ' D ' D D ",
"{. .W E T J T T +.J Y.T.#.K K <                                                           = D D D D ' [ ' J J ' J ' ' ' D ' J ' ' D D D D D ",
"8 0 W W l ' O.J { J H D J J J J y = O                   . . . .   .                 . - 8 A A A D D J ' J ' ' J ' J J D D ' D D ' D D D D l ",
"d } D l ( ( O.K K J ! +.J K J J J J k &               - G J G A j :                 k j j A A A A D D D J ' J ' ' ' ' D ' D D D D D D l l A ",
"l J D ( g K Q T J J J J J J J J J G y %               7 G G G Y A <                 *.k y j A j A A A D D J D ' J D D D D D D D D D j l j j ",
"D Y D ' A x t f J J T G T G G J J G i %               > G G G G A <                 j i i A A A j A A D D J D J D D D D D D D D A j A j d j ",
"D S D ' I y.u.` K J J G G J G G G A i %               : G A A G A 7                 i y j i j A A A A D D A D D D A A A F F A j A j d d j d ",
"D k A G X.G.l.s.R K G G J G G D G G y %               - A G A A l <                 j j F j A A A j D D A D j A j j D j j j j f B k j j i j ",
"j j G G A f l G H G G G G J D D A D y +               : G A A A A <                 j j j D j l j l j j j j j j j j j d f f l m a.^ i j j j ",
"j j A A A j j A G G G G A A A A A A i O               : A A A j j <                 j D l j A j l j j j j l j j j d j g y u g M / B k j j j ",
"j y i A j j A G A G G A A A K D A J j &               - A A D j A <                 D j A k k A j j j j j j j j j j j d A Z d r f f d j A j ",
"i p i f h j A A A G A G i S ..y j J K &               : A A A j j <                 j D j j j j j j i j j l j j j j j C A V A f d j A j j l ",
"j k z 1.j j j A A A A A A A H j D &.b.<               0 A A j A l 7 .             & l l D j j j i i j j j j l j A j j i i V V p u p A j A j ",
"j c a ` 0 j V j A A A A I ].S j D J $.j &           < A D A D A A j < .         # d l l j j j i j y j i j j j j j j j d i Z j d d i j A A k ",
"u f C k i i i d j A G A i c ..F A G G A j y 7 : 7 y j D j D j l l l j d < : : 9 l ( d j A d i j i j i j i j j j j f j l F F j d j d A k j A ",
"A j y j p A i j j A A C !.S K A D j A A { K A j j l j D l l l A D j D l j e w V S F A f i j i j j i j i j i j i j j i y ] y y j j l A k k j "
};
