/* XPM */
static char *result[] = {
/* columns rows colors chars-per-pixel */
"70 73 192 2 ",
"   c #040005",
".  c #04040B",
"X  c #08060C",
"o  c #03080E",
"O  c #09080B",
"+  c #040710",
"@  c #030913",
"#  c #080C17",
"$  c #040D1B",
"%  c #080B18",
"&  c #0C1112",
"*  c #03101E",
"=  c #0F131B",
"-  c #041323",
";  c #0A1525",
":  c #04162A",
">  c #04192D",
",  c #09192B",
"<  c #031C34",
"1  c #0C1D32",
"2  c #031E39",
"3  c #032136",
"4  c #04223D",
"5  c #09223E",
"6  c #0B2035",
"7  c #10273A",
"8  c #192638",
"9  c #182F3A",
"0  c #212736",
"q  c #032443",
"w  c #0B2440",
"e  c #042945",
"r  c #0A2C46",
"t  c #04264A",
"y  c #032C4D",
"u  c #092C4C",
"i  c #112740",
"p  c #1B2940",
"a  c #162E45",
"s  c #03314D",
"d  c #09374D",
"f  c #11314F",
"g  c #1E304A",
"h  c #022D53",
"j  c #0A2F54",
"k  c #032E5A",
"l  c #0A2E59",
"z  c #033255",
"x  c #0A3253",
"c  c #023C55",
"v  c #02345C",
"b  c #0A345B",
"n  c #02395E",
"m  c #0A3A5C",
"M  c #183355",
"N  c #143C53",
"B  c #16305B",
"V  c #19365B",
"C  c #153C5E",
"Z  c #193A5C",
"A  c #153354",
"S  c #2F2D43",
"D  c #202F56",
"F  c #293457",
"G  c #243F57",
"H  c #2F3658",
"J  c #293A5D",
"K  c #333558",
"L  c #303D5A",
"P  c #062E62",
"I  c #0C2F63",
"U  c #092A68",
"Y  c #023563",
"T  c #0A3564",
"R  c #023B64",
"E  c #0B3B64",
"W  c #02366A",
"Q  c #0A366B",
"!  c #023B6A",
"~  c #0A3C6B",
"^  c #133C63",
"/  c #1C3D61",
"(  c #123C6B",
")  c #1F3F6C",
"_  c #183460",
"`  c #033672",
"'  c #033C72",
"]  c #093C73",
"[  c #003F7A",
"{  c #0D3B7A",
"}  c #073576",
"|  c #103B71",
" . c #123E7E",
".. c #6B3D58",
"X. c #593860",
"o. c #02415F",
"O. c #184951",
"+. c #1A4858",
"@. c #19465D",
"#. c #21474C",
"$. c #28434E",
"%. c #3D4D4F",
"&. c #245447",
"*. c #3B554F",
"=. c #234E55",
"-. c #3F415A",
";. c #325658",
":. c #014165",
">. c #0B4064",
",. c #02426D",
"<. c #0A426C",
"1. c #05486B",
"2. c #144266",
"3. c #1A4363",
"4. c #194966",
"5. c #14446B",
"6. c #1B426A",
"7. c #11496F",
"8. c #194A6B",
"9. c #024372",
"0. c #0A4373",
"q. c #0F4874",
"w. c #02427A",
"e. c #09457B",
"r. c #07497D",
"t. c #0D4B7B",
"y. c #114273",
"u. c #124B73",
"i. c #1A4B74",
"p. c #124A7A",
"a. c #1C4F7C",
"s. c #184778",
"d. c #1B557B",
"f. c #244D6B",
"g. c #2A476A",
"h. c #334869",
"j. c #2A556C",
"k. c #355A64",
"l. c #2A5276",
"z. c #25537A",
"x. c #28517B",
"c. c #2A587F",
"v. c #375D79",
"b. c #3D5C7B",
"n. c #264B77",
"m. c #59445A",
"M. c #794A54",
"N. c #446254",
"B. c #526255",
"V. c #4E7755",
"C. c #637449",
"Z. c #5F4068",
"A. c #415D7D",
"S. c #45686D",
"D. c #557F6E",
"F. c #55776D",
"G. c #894350",
"H. c #043E81",
"J. c #014182",
"K. c #0F4C84",
"L. c #1C5482",
"P. c #224F84",
"I. c #215887",
"U. c #2D5C81",
"Y. c #2A5A88",
"T. c #395F80",
"R. c #2C5F91",
"E. c #38678B",
"W. c #386385",
"Q. c #2D6494",
"!. c #356697",
"~. c #39719F",
"^. c #3976A5",
"/. c #416F94",
"(. c #4A6C94",
"). c #4E7794",
"_. c #4D7997",
"`. c #45719F",
"'. c #577B99",
"]. c #5C7597",
"[. c #617C93",
"{. c #427CA2",
"}. c #7AA487",
"|. c #5483A7",
" X c #6898AD",
".X c #6D9CBC",
"XX c #72A1C4",
"oX c #95B0BE",
"OX c #87A8B9",
"+X c #96B4C2",
"@X c #A2B7C6",
"#X c #A4BCCA",
/* pixels */
"z s x z v k v k f.h.B j u y h l v v v v v v c m E n R R T W R 6.N.*.V T ' ` R W R v v v h h h v h h h k z h s y e r r y h h h h h h k v h z ",
"z j.N x j k k h z j z k k Y P U k v v v v v v !.W.E n R R R E ,.R m ^ b b ! R R R v v v v h h h h h h h h z y y s y y h h y h t h h h k v h ",
"z j.N s z k k h l j Y W I V Q ] k v v v v v v U.i.E R n R E E ^ 5.( i.8.m R R R R v v v v h h h h h z h y y h h h h h h h y y y y h h h j h ",
"z r s y h k k v Y k z v D ..m.4.b b v v v v v b n :.n R R Y n 4.b.M f ^ @.E ! R R R n n v z k k v k v k x h h h h h h h h h h k h h h h y h ",
"z s y h k v v v Y v h T H G.M.N x.T v v v v v v n n n R R :.:.8.b.; . 8 L Z R R R R n R b v v k v v z h h h h h h k z z h h h z z z z s s y ",
"z z h v ^ E v v P z x T _ S L Q d.T v v v v v Y n R :.R :.n E ^ g .   > J T R R Y R R v Y v v v h e 2 < , < t h v k z z q < > > 3 e x z z z ",
"z k k b 5.2.b b v v c Y Y m ^ ! R R Y W W Y Y v v R R R R :.C V 0   o e W Y <.! R R R R R Y v h 2 $ .   . . % < h v y > @       . $ 2 s z z ",
"v v v z m b b n R R z > 3 s R ! ! ! ! R W Y Y Y R Y R R :.R m r X . > b E Y 7.<.R R ! ! ! ! Y q +             + 3 z > .             @ e z z ",
"v n b n m n n R R R s @ . - s :.,.,.! ! ! ! ! W W R R ! ! R Y < . @ q R R R >.R ,.R ! ,.! ,.z > .               $ < $                 > z z ",
"Y R n :.:.n :.R R R z > . . : z ,.,.<.9.! ,.! R R W R ! ,.,.b %   - z :.:.R R ! ! ,.,.! :.:.u #                 . @                   . y z ",
"Y R R :.:.R R o.R R E d :   . 3 n ,.9.,.9.9.1.! W W W R R ! 2   + 4 R :.R R R ! ,.! ,.,.! ! w @                                         z v ",
":.n :.R ,.R :.R :.R R E s *   . 3 R ,.,.9.9.1.! ! R ! R ! n %   - c ! ! R ,.! ! ! 9.,.' ' ! t % @ O                                     y n ",
"! R E ,.! R R R :.R 5.U.m y $   o 3 R 9.,.1.R Y h h t y x 4   o 2 ! ! ] ! ! 9.<.t.' 9.9.! :.R y x w = o                                 z n ",
"R :.R :.,.! :.:.:.R i.XXU.m r @   $ y ! R y 3 - + . .   # .   @ u ! 9.! ] ~ 9.L.^.9.! ' ,.:.,.! ! W j - .                             $ z n ",
":.R :.:.:.:.:.:.R R n z.2.~ R 4 o . * > - .                   . - e v ! ' ` 9.0.<.! 9.9.! ! ! ! ! R W t @                             < z c ",
",.R :.:.:.,.R :.,.<.! <.<.<.9.Y < .                               . * e R 9.<.9.9.! ! ! ,.! ! ! W W W k :                           @ y v v ",
"] R :.,.R ,.R ,.! ,.,.,.9.9.9.! 2 .                       @ > < *     @ 4 R ! ,.,.! ! ! ! ! W ! ! W W v <                           < z v n ",
"<.R ! ! ,.R R ,.,.,.9.9.9.9.R 4 @   . .                   w 2.Y e @     @ < Y ! ! ! ! ! ! ! R W W ! W h ; .                       $ h n n v ",
">.R ! R R ! ! <.,.1.9.9.w.:.4 @   - 3 4 *                 3.E.b h $       . 2 W ! ! W ! ! W W R ! W Y 2 @                       @ q v n n n ",
"n ! R W ! ! ! ! ,.1.9.9.9.s @   $ e ! ! e @               4 @.y q +         @ e ! ! ! ! R ! ! ! W W k > X                   . $ 2 z n n R n ",
"n R Y W ! W R ! <.9.9.9.R >     $ y 9.9.y $               @ , 1 $             * v ! W ! W ! W W W y.l.a - X               . $ q k W v n R R ",
"Y W W W W ! ! ! w.9.9.' e o     o < v c 3 o                 X X               . 2 W W W ! W W Q Q n.'.g.u : +           + - q v ` ' ! Y R R ",
"R Y W ! ! ! ' 9.9.w.r.R -         @ : - @                                     . - W W W ! W W Y T 6.l.6.T t %         $ < y v W 0.K.! R n R ",
"Y Y W W ! ! 9.9.9.w.t.z @           .                             + $ * - : < 2 e W W ! W ! W m 2.2.^ T k w @       . < k Y v W ] e.R n R E ",
"Y W W R ! ! 9.9.9.9.] 4 .                     .     X % - : : 1 p w u h z v Y P Y ~ !.p.` ` ! Y >.>.T b 2 # X         : v W Y Y W W Y Y R R ",
"T W ! ! 9.,.9.9.e.9.Y >                 + $ - : < < 2 t t E A.[.[.^ ! ` W W W W W ] R.p.W W W R Y Q b 2 %             $ h W Y Y W W v Y Y Y ",
"Y ! ! ! 9.9.9.9.9.9.b $     @ $ > < 4 q e y h v P Y W W W ~ A.@X#XW.~ ! ! W W W Y ~ ] ~ W R R ! ! b 2 @               $ y Y R Y W Y Y Y R E ",
"Q ! ! R z n 1.9.9.9.R e q y h b E R ! ! W Y W W W W ! W ! T ) ].A./ Y R R W R W W W W ! ! W W W W q %                 : k W R W Y W Y Y n R ",
"W z * * $ * > z 9.9.9.,.! ! 9.I.d.9.w.w.' ! R W W W W ! W ! ~ R.~ ! W W W W W W W W ! ! ! ! ! Y 2 @                 - y R ! ! R W Y k v v R ",
"v @           * z 9.9.,.9.,.! 0.! <.,.,.,.,.! ! ! R ! W W W ! W ~ W ! W ! ! ! R ! ! ! ! ! ! R q @                 * z 1.,.9.! ! R W v v v v ",
"n             o z 9.,.z 4 5 4 4 w 4 4 6 3 5 5 5 5 5 5 2 4 5 5 5 5 w 4 5 2 5 4 4 < R 9.,.9.! e @ .               - s ,.,.9.,.,.,.R ! v v v v ",
"n             o y 9.n - o o X X o X . . o . o X o . X X . . . . . X X X + X X o @ e 9.,.,.q @                 - v 9.,.,.,.,.,.! ! ! R v v n ",
"o.            @ y ,.n -                                                         o u 9.,.e @               . - z w.J.9.,.<.<.,.! ! ! R n n v ",
"n             o h ,.v *                                                         o u 9.z @                 : c ,.w.w.9.<.0.9.! 9.,.! :.7.>.R ",
"n             o s 9.v * .                                                       + h ! e               . - z 1.9.9.9.,.0.a.I.q.] ! ! :.u.q.n ",
"l.            o y <.n -                                                         . u <.u               : z 1.,.9.9.,.9.<.L.Q.t.,.9.,.<.! R R ",
"b.            o y ,.n *                                                         X t ! v $         . - x ,.9.9.9.9.9.9.! 0.q.0.9.9.9.9.,.:.R ",
"2.            o s 1.n - .                                                       X t ! Y e $       : h ,.9.9.9.9.9.9.9.9.] 9.9.9.9.9.9.,.:.,.",
"b             & d 9.v -                                                         o q ` W v t : * 6 x ~ ] ,.9.9.9.9.,.9.,.' <.9.9.9.9.' 9.1.! ",
"v             & d 9.v -                                                         o 5 ` ! Q W v h n W W <.,.9.9.9.9.9.9.9.9.9.,.9.9.9.9.[ w.! ",
"R             @ x 9.Y -                                                         . 9 ( W R ! W W W W ! ! ,.9.,.9.9.9.9.9.9.9.9.9.9.9.,.' w.! ",
"Y             @ h ' Y *                                                         O %.( ` ! ! ! W W ! W ! ,.,.,.9.9.9.9.9.9.9.9.9.9.9.,.1.:.9.",
"v             @ z 9.n * .                                                       O 5 ~ ` ! W W ! R W W ` ! 1.:.,.u.&.3.0.9.9.9.9.9.9.1.:.! ` ",
"v             o y 9.v -                                                         . 4 ` ` W R W W ! W ! W ! :.:.' P.}.g.] 1.9.9.9.<.u.1.,.` W ",
"Y             o y ' v *                                                         . 4 ` ! ! W ! W W W ! W ! 1.,.9.<.O.2.9.9.9.1.2.2.'.d.,.Y Y ",
"k .           @ y ! v *                                                         . 4 ! ` W ! W W R W W ! ,.9.,.9.<.<.,.9.9.9.d._.+XoXc.>.b v ",
"P $           - h ! b *                                                           2 ! W W W W ! W ! ! ! ,.9.9.9.9.w.9.9.9.,.:.@.OX+X|.i.m Y ",
"Y h : * $ $ : e Y ! z #                                                         . 2 W W W ! ! W ! ! ! ] 9.9.1.9.9.w.9.9.9.,.,.5._.v.i.>.b Y ",
"P W k t t t k W W R h *                                                         X < Y Y W R R W ! ! ! 9.w.9.1.,.9.,.w.9.,.9.9.t.u.<.0.R m W ",
"W Y W W ! W ! ! ! ! v $                                                         X < Y Y W W W W W ! ! ] 9.9.1.,.,.1.w.9.9.9.9.9.9.9.,.:.W W ",
"v Y W R ! ! ! ! ! ' v *                                                         . 2 Y Y Y Y Y R R R ,.,.9.w.,.R R 9.e.w.9.9.9.9.9.9.,.:.R R ",
"v W W R ! ! ` ' ! ! v *                                                         . 2 Y Y Y Y Y R R R R ,.! 9.w.i.^ { 9.9.w.9.9.9.9.9.,.,.! R ",
"Y Y R W W ! ' ! 9.! v - .                                                       . q W W W v R Y R ! :.:.:.R i.D.k. .1.,.9.9.9.9.9.9.,.,.:.R ",
"Y Y R ! ! ! ! 9.! ! Y :                                                         + y W P Y Y Y R R ,.:.:.:.R 2.V.;.{ :.1.,.9.1.9.,.,.1.! :.R ",
"Y Q R W ! ,.! ! 9.! R 2 .                                                       $ k Y Y R Y Y R R :.! R :.R } 3.C W :.1.! ,.1.,.,.,.:.u.>.R ",
"Y Y W ! ~ ] ' ' 9.! ! h $                                                       < Y W W W Y v Y R ,.:.,.,.,.J.' ~ ` ! ,.,.,.,.! ,.,.<.{.7.R ",
"b R R R ,.! ' ' ! ! ! R 4 @                                                 . : h W Y W v Y R R R R R :.:.9.9.1.<.! ,.,.R ! ,.R ,.R R u.<.:.",
"@.N R :.:.,.! ! 9.! L.<.Y t > $ .             .                         % - 2 u v v v v v R Y Y R :.,.,.,.R ,.R ! :.R :.:.:.:.:.:.:.:.R R R ",
" Xi.} } ! ! ' ' ~ <.~.!.0.! Y u *           . - q q q q 2 .           . h.(.g.v b v z v v Y Y R R ! ,.R R ,.,.:.:.,.R :.:.:.:.R :.R R R R R ",
"4.n ` } n :.9.~ ! ~ t.L.<.! ! b :             2 Y ! W ! k +           . g.`.( k v v v v v R R Y R R R ,.:.R R ,.,.R ,.R R R :.R :.R R R n n ",
"m o.R n o.n 9.! ! ! ! ] ! ! ! T :             < Y W W W y +           o w ( E b v E 5.v v Y Y Y R R R R ! :.,.:.:.,.R R R R R R R R R n n v ",
"R R R o.n ~ ] 9.<.' ! ! ! ! W v :             5 v W W W t +           . 4 v v v b l.U.v v v v Y Y Y v R R R R ! R ! R R R R R R R R v n v v ",
"R ! R :.E $.$.b ! ! ` ! ` ! ! Y :             7 E ! W W y +           . 4 v v v v k b v v Y Y v v Y R W R R R R R R R R E R Y Y v v v v v v ",
"W E n R ^ B.C.#.! W ! W ! W W k :             < T Q W W e .           . 4 v z v v v v k k P v Y R Y R Y Y R W R R Y v Y Y Y Y c v v v z v z ",
"Y m Y W ^ S.F.f.Q W ! ! W ! W v -             < W W W W t .           . 4 v v v v v v v Y v R Y v R R Y n R v v v v v v v Y z x V x z v v v ",
"v b W W T m E W W W W W W W R v :             2 k W Y W t .           . 4 v v v v v v v b n v n n v v n v v v v v v v v z v b K Z.L v v v v ",
"v v Y W Y v v W W W W W W R Y v >           + q Y Y Y Y k $           $ e v v v Y n n n n Y b Y v v v v R v v v v z v z x v x K X.F b v v v ",
"v v k v v v Y W W W Y W W Y R v e : .   . $ 2 h Y W Y W W q $       $ 2 h v Y v n v v n v R v v v v v v v v n v v v v v k v z d A x v v Y v ",
"k v k z z Y W Y W W Y W Y Y T v R v z e q t k Y W Y W Y W v t q 4 4 e z v v n n n n n n v v v v v v k v v v v n n v v v W P v z v v v v v v ",
"v l ^ +.x v Y v v W Y Y Y T Y Y R e.K.] Y Y W Y Y Y Y v v Y v v v v Y Y R v R v R v n n R v v v v k v v v v v v v v v k k T U l j P Y Y Y v ",
"k b V =.x k k v v Y Y W i..X6.b W ' w.<.Y Y Y Y n R R Y Y Y Y Y R Y R v Y n n R n R n n v v v k k k k v v v n v v v v z k P v z z l v v v n ",
"x l I b k k v v v Y W T ( l.T Y Y ! W W W Y P v Y v Y Y n R n n v n n R v Y v Y R c v v Y v k v k v v k v v v v v v v v v k z z v v Y Y b Y ",
"T k z k P v v v v Y P Q !.s.( v Y Y W Y ~ R Y v v v v R n n n n v n n R v c s W T E Y z k h v v v k v k v k v k v v v v E v v v v v n b b Y "
};
