/* XPM */
static char *result[] = {
/* columns rows colors chars-per-pixel */
"70 73 216 2 ",
"   c #040005",
".  c #060409",
"X  c #08060C",
"o  c #0A080E",
"O  c #07080F",
"+  c #070710",
"@  c #060913",
"#  c #0D0D14",
"$  c #040D1C",
"%  c #0A0E19",
"&  c #100F18",
"*  c #0C111A",
"=  c #0F1017",
"-  c #12131B",
";  c #19171E",
":  c #041223",
">  c #0E1621",
",  c #06162A",
"<  c #0C192A",
"1  c #141722",
"2  c #151A24",
"3  c #191A23",
"4  c #151D2B",
"5  c #1B1F2A",
"6  c #0C1E33",
"7  c #051C36",
"8  c #101E32",
"9  c #1A202C",
"0  c #16202F",
"q  c #0E243C",
"w  c #0F283F",
"e  c #0B2038",
"r  c #152233",
"t  c #1B2533",
"y  c #16263A",
"u  c #1D2B3B",
"i  c #21242F",
"p  c #202632",
"a  c #232A36",
"s  c #232D3B",
"d  c #292E3B",
"f  c #292B32",
"g  c #25313E",
"h  c #29323F",
"j  c #092D47",
"k  c #042649",
"l  c #032D4D",
"z  c #0A2E4D",
"x  c #052A46",
"c  c #162B43",
"v  c #1A2D43",
"b  c #162F4B",
"n  c #182F4A",
"m  c #04324D",
"M  c #07354E",
"N  c #1C3145",
"B  c #12324C",
"V  c #1C344C",
"C  c #113E43",
"Z  c #022E53",
"A  c #0B2F56",
"S  c #042E5A",
"D  c #0A2E59",
"F  c #033355",
"G  c #0A3254",
"H  c #033954",
"J  c #02345C",
"K  c #0A345C",
"L  c #02395E",
"P  c #0B3B5D",
"I  c #0C3956",
"U  c #143352",
"Y  c #1A3451",
"T  c #133A55",
"R  c #1C3A55",
"E  c #13335B",
"W  c #1B365B",
"Q  c #123B5C",
"!  c #193A5D",
"~  c #2F2D43",
"^  c #223345",
"/  c #2A3544",
"(  c #22354B",
")  c #22394C",
"_  c #2D3B4B",
"`  c #202F56",
"'  c #243C54",
"]  c #2B3F54",
"[  c #28395B",
"{  c #333558",
"}  c #303D5A",
"|  c #062E62",
" . c #0C2F63",
".. c #092A68",
"X. c #023563",
"o. c #0A3563",
"O. c #023B64",
"+. c #0B3B63",
"@. c #023669",
"#. c #023C6A",
"$. c #0A3C6A",
"%. c #0B376A",
"&. c #123D64",
"*. c #1B3D62",
"=. c #123D6A",
"-. c #183460",
";. c #043673",
":. c #033D72",
">. c #093C73",
",. c #073B7A",
"<. c #163F7F",
"1. c #6B3D58",
"2. c #593860",
"3. c #02405E",
"4. c #14425C",
"5. c #1A4858",
"6. c #25454D",
"7. c #3B4441",
"8. c #3B554F",
"9. c #23425D",
"0. c #28455E",
"q. c #284959",
"w. c #33475C",
"e. c #354A5E",
"r. c #314151",
"t. c #014165",
"y. c #0B4166",
"u. c #02416D",
"i. c #0B426C",
"p. c #0D4A6C",
"a. c #164364",
"s. c #1C4264",
"d. c #1A4964",
"f. c #14436B",
"g. c #1A446A",
"h. c #14486D",
"j. c #1A4B6D",
"k. c #024371",
"l. c #0A4572",
"z. c #0D4974",
"x. c #01427D",
"c. c #0B4A79",
"v. c #08467D",
"b. c #124572",
"n. c #1C4773",
"m. c #134A73",
"M. c #1C4C73",
"N. c #1C4E7D",
"B. c #114978",
"V. c #1D5175",
"C. c #1D517B",
"Z. c #234462",
"A. c #284664",
"S. c #254C63",
"D. c #2D4A65",
"F. c #22466B",
"G. c #244B6C",
"H. c #2B4D6E",
"J. c #324C62",
"K. c #334C6B",
"L. c #2B556D",
"P. c #255367",
"I. c #3B566D",
"U. c #35566B",
"Y. c #234B73",
"T. c #294E7A",
"R. c #24537A",
"E. c #2B5379",
"W. c #2C587D",
"Q. c #285677",
"!. c #345D7C",
"~. c #3B5F7D",
"^. c #345475",
"/. c #3F6462",
"(. c #42464D",
"). c #40425B",
"_. c #415A5E",
"`. c #59445A",
"'. c #794A54",
"]. c #446254",
"[. c #526255",
"{. c #637449",
"}. c #5F4068",
"|. c #405F7E",
" X c #455664",
".X c #486B69",
"XX c #456773",
"oX c #55776D",
"OX c #894350",
"+X c #76887A",
"@X c #023F82",
"#X c #014282",
"$X c #0C4A85",
"%X c #164E84",
"&X c #1C5483",
"*X c #295A83",
"=X c #345C8A",
"-X c #386486",
";X c #366796",
":X c #39719F",
">X c #3976A5",
",X c #416689",
"<X c #5A6F80",
"1X c #426D97",
"2X c #4A769B",
"3X c #6F7E87",
"4X c #427CA2",
"5X c #69859D",
"6X c #5682AB",
"7X c #6E9CBE",
"8X c #6898AD",
"9X c #72A1C4",
"0X c #8FAEBD",
"qX c #9BAEBB",
"wX c #97B0BE",
"eX c #99B4C0",
/* pixels */
"F G m F J J S F G.K.E A j x Z D J J J J L J L K +.L O.O.O.o.O.a.].8.! X.;.;.#.X.L J J S Z Z Z Z Z Z Z S Z F l l x j j l Z l Z Z Z Z S S F Z ",
"F P.T G S Z Z S Z A Z | S X.| ..S J S J J J F 1X-XO.L O.O.%.$.#.O.P &.P K O.O.O.X.J L J F Z Z S Z F Z Z l F Z l l x k Z Z Z Z k Z Z Z S F S ",
"F L.T M S S S Z A D J @...! %.;.S J F J J J X.W.j.y.O.L O.X.+.+.f.=.Y.f.P O.#.O.O.L L L X.J S Z Z S S Z l l Z Z Z Z F Z Z k Z Z Z Z Z Z Z Z ",
"F j m l Z S S X.X.S F L ` 1.`.d.K o.J J J F F X.+.O.L O.O.O.P a.~.*.=.f.s.o.O.O.O.X.X.L I Y G Z S F S F Z Z Z Z Z Z Z Z Z Z Z Z Z Z l l l Z ",
"m m F Z Z J J F X.F G o.{ OX'.R R.+.J S J J F X.J O.O.O.L t.t.j.-X&.O.*.w.! O.O.O.O.L P 3 o y F J J J F S J S Z Z Z F F Z F F J H K F F m k ",
"F F Z S +.+.F K X.F F ..-.~ } #.M.%.J J J S X.J L L t.O.L O.+.g.!.a.+.Q [ o.O.O.X.O.O.S.  . : J J J J X.J J J F F S F J F J F F M H F F F F ",
"Z S S K g.a.K J X.F H O.O.+.&.#.#.O.X.X.X.| X.X.X.L O.O.y.t.P F.=Xs.L O.@.O.i.u.X.O.O.0.  X 6 X.X.J F F J J X.L X.X.J L H F J T /.0.S F F F ",
"J J J F K K K O.X.O.O.O.t.O.t.#.u.#.#.#.@.X.X.X.O.X.O.O.t.O.P +.o.P %.O.#.O.h.+.O.O.O.d   - Z.@.X.J L J X.L X.X.L O.X.O.H H K 9..Xw.A F F F ",
"J L J L 3.L L L O.O.O.O.t.t.t.t.u.u.#.#.#.#.O.#.O.X.O.#.#.#.#.O.O.O.O.O.O.O.y.t.#.#.h.-   1 M.#.@.X.J X.L O.L O.O.X.X.L F H X.I 6.m F F F F ",
"o.O.L t.O.O.y.t.O.O.O.y.O.t.t.#.u.t.k.u.u.#.#.#.@.X.#.O.#.u.u.:.u.y.O.t.O.y.O.O.u.#.!.    : i.u.$.#.! +.O.X.O.O.O.O.O.H H J X.F M J L F J J ",
"O.O.t.O.t.O.t.L O.O.y.+.$.#.t.t.p.9.e 0.V.k.u.#.#.X.#.#.t.u.:.k.k.#.t.O.O.O.O.#.u.u.I.  X v :.$.%.4._.P.o.O.O.X.O.O.L J J J X.H J X.X.J L J ",
"O.O.t.O.t.O.O.O.t.O.O.$.+.#.t.t.N # . = y 4.u.#.#.#.@.#.#.#.k.k.k.u.t.#.#.O.#.#.#.#._   # H.x.$.y.P.+X.Xy.O.O.X.L X.O.J J X.X.H L O.K J X.L ",
"#.t.O.u.#.#.#.O.y.O.f.*X+.O.t.^ X       X 9 y.#.#.#.@.@.#.#.k.#.#.:.:.#.#.#.u.l.c.:.X   * Q.k.#.:.$. XG.#.X.X.L O.X.X.L H X.X.F X.J J L L O.",
"O.O.O.y.#.t.t.t.t.O.m.9X*Xy./ X             ) m.#.@.#.@.O.$.#.u.u.u.u.:.>.:.k.&X>XC.    * V.k.#.#.$.P %.X.| X.X.X.X.X.X.J X.J H J J O.J L H ",
"t.t.t.t.t.t.t.t.O.O.J W.y./                 9 Q #.@.@.X.o.f.&Xb.~.e.3         d I.I.    $ t.#.#.#.@.X.@.X.X.X.X.X.X.X.@.X.J J J J X.J L J J ",
"u.O.O.t.t.t.O.t.u.u.u.y./                   . Z #.#.@.%.$.A.f                         X ^ #.#.#.@.#.@.@.X.@.X.@.X.@.X.@.o.o.S A J X.X.L L J ",
">.O.O.t.#.t.#.t.t.u.i.^ X                   ( b.#.#.#.Y.w..               X @ @ X       # 0.X.#.#.@.@.@.X.@.O.X.X.@.@.@.X.o.*.*.S X.X.L L F ",
"$.O.#.#.t.#.#.u.u.t.N +                 X t &.u.#.#.@.( #               X u L.W.' .         2 s.#.X.@.#.X.#.@.#.#.X.X.@.o.%.=XT.D X.O.L L L ",
"y.O.#.#.#.#.u.#.y.N o                 X r +.k.#.#.#.#.%.^ &             p &.#.#.#.2           1 [ O.X.@.X.@.X.#.X.@.X.X.X.o.S K J J O.L X.L ",
"P O.#.O.O.#.#.+.u #                 X r &.u.t.l.Z &.@.O.X.v &           / a.#.#.#.w.            # B $.@.#.X.#.@.X.X.#.@.X.X.K J J J L L L O.",
"O.@.@.X.@.#.o.c #                 X r &.k.k.l.T @ a g.%.X.X.n &         9 s.%.#.b.9               3 D.f.X.O.@.#.@.X.X.X.X.X.X.o.O.X.X.L L O.",
"X.X.@.#.#.o.y #                 . t +.k.u.l.T %     t n.@.#.%.v -         0 e 7 v                   f 9.%.@.@.$.#.@.@.o.*.g.! U %.:.#.X.O.O.",
"O.X.@.@.o.v #                 . 0 y.k.k.l.T $         y F.@.#.P v -                                   u +.X.#.@.n.F.b 7 r u 5 - [ %X#.O.O.+.",
"X.X.O.$.R #                   t a.u.k.l.Q %             t Y.@.%.Q v =                                 # [ E.6 , r 5 -           ' N.O.L O.O.",
"X.X.@.J -                   9 y.u.k.l.T %                 r Y.=.T.&.c -                                 * 5 X             # d V &.@.X.X.O.O.",
"X.X.#.K 3                 p a.u.k.k.Q %                   . a 5X5X=.%.n #                                         a } Z.U S Q +.@.@.X.X.O.O.",
"X.#.#.b.'               a y.u.k.z.a.@                       X 7.qX-X$.#.n #                     - -         _ D.S o.$.:.#.@.O.X.X.@.X.X.O.o.",
"%.#.#.k.&.3           t y.u.u.z.Y.+                         . X d H.o.O.L N #               # V @.X.n &   p %.y.#.#.#.@.@.#.O.@.X.X.X.X.X.O.",
"@.#.k.#.k.Q 2       t y.u.u.l.W..                                 u n.O.#.@.V o             < b.#.#.b.<     L k.k.x.t.t.#.#.#.#.X.X.| J L L ",
"X.:.k.#.u.k.V.J./ J.p.k.k.u.M.                                      u M.$.#.#.( o           : u.k.k.k.,     S.i.k.t.u.u.k.u.#.#.@.X.J J J L ",
"O.t.k.u.u.:.u.k.l.k.k.k.k.M.                                          ^ M.u.#.k.) X         2 V.l.k.G.3     |.b.i.y.u.u.u.u.u.#.#.O.X.F J J ",
"3.t.k.u.k.k.k.k.u.k.k.c.j.X                                             ^ m.k.k.k.) o         9 K.J.3       I.l.k.k.k.u.u.u.u.u.#.#.X.L J J ",
"t.u.k.#.k.k.k.k.:.u.l.j.X                                                 ^ j.k.k.k.) #                     L.p.x.#Xk.u.i.u.u.u.t.#.#.O.L L ",
"y.u.k.k.k.k.k.k.k.l.4.@                                                     g j.k.k.u.V #                   j.k.x.x.k.u.l.l.k.#.#.#.t.i.y.J ",
"+.l.l.k.u.u.k.:.l.Q @                                                         g M.l.k.u.V #                 h.k.k.k.u.l.%X*XM.f.Q f.p.m.m.L ",
"*X2Xm.l.k.k.,.l.T *                                                             ^ G.#.k.u.V =           . - t.k.k.u.u.l.&X;XA.a 9 s R i.#.O.",
",X7XC.u.u.#X$XT %                                                                 a R.u.k.$.c &           r.l.k.k.k.k.$.b.A.1       - ' t.O.",
"j.-Xm.k.k.k.i.r                                                                     u F.#.#.+.n =         a.k.k.k.k.k.l.9.1           - q.u.",
"O.y.:.k.t.h.V o                                                                       t Y.@.@.o.v -     1 O.k.k.k.k.l.Z.-               9 O.",
"X.:.:.k.t.B #                                                                           y Y.@.#.%.v #   M u.k.k.k.l.S.-                   O.",
"#.O.#.:.p.V                                                                             X y G.@.@.O., u p.u.u.k.k.P.=                   i t.",
"#.J X.#.m.)                                                                               X r M.@.X.X.O.#.k.u.k.U.=                     d.#.",
"@.X.O.#.b.)                                                                                   y g.#.#.;.#.t.3.U.O                     4.i.;.",
"X.@.@.#.l.B                                                                                     u n.#.;.t.t.U.X                     4.i.;.@.",
"X.@.@.#.#.f.s                                                                                 1 U #.@.@.u.U.o                   . oXQ.u.o.X.",
"X.@.@.@.@.X.e                                                                               1 U #.@.@.#.0.=                   X 5XqX*X+.J L ",
"X.@.@.#.#.s.y                                                                           . - U @.@.#.$.A.= .                 O ( 0XqX6Xn.K J ",
"X.@.X.#.*.t                                                                             - Y #.#.@.$.4.1                   O B j.2X!.M.i.P X.",
"X.@.@.*.t                                                                             - Y #.@.#.#.b.r                   @ B c.c.z.p.i.O.O.@.",
"X.X.*.p                                                                             ; Y X.X.X.@.#.m.r                 @ B c.k.u.k.k.u.t.X.@.",
"o.*.t                                                                             ; Y X.X.X.X.O.O.u.c o             O B c.k.k.k.k.k.k.t.#.O.",
"Z.t                     u                                                       3 Y X.@.X.X.X.O.O.O.a.>           X B z.x.k.k.k.k.k.u.u.O.O.",
"5                     w m.b                                                   3 U X.X.X.X.X.X.X.O.O.u.R *       . [ p.k.k.k.k.k.k.k.u.u.O.O.",
"                    w i.u.l.B                                               3 B X.X.X.X.X.X.X.O.O.O.#.p.M ( i 7._ B.u.t.k.u.u.k.u.u.u.u.y.O.",
"i                 w y.:.#.:.u.U                                           3 U X.@.X.@.X.X.X.X.X.#.t.t.t.3.p.%.Z.d.;.t.t.u.u.u.u.u.u.y.z.t.O.",
"K.              j y.u.:.u.#.#.l.E                                       1 U X.@.@.X.@.@.X.L O.O.#.t.#.t.t.k.@X,.$.#.k.u.u.u.t.t.u.t.u.4Xh.O.",
"+.r.          y $.#.#.:.#.#.:.i.0.                                    ; U @.X.@.X.X.X.@.X.X.X.O.O.t.t.O.t.k.k.t.u.O.#.t.u.t.#.u.#.t.O.m.p.O.",
"5.Q w.      q i.u.$.&Xi.u.#.#.g O                                   3 ] *.=.=.K X.S J J L X.X.O.O.#.u.u.t.t.u.#.t.#.t.t.O.t.#.t.t.t.t.O.O.O.",
"8XM.;.<.C.m.:.:.#.u.:X;Xl.#.h                                     ; V K 2X4XY.K J F F J J X.X.O.#.O.t.t.u.#.#.t.#.#.t.#.t.t.t.O.O.t.O.O.O.O.",
"j.L ;.;.L t.k.$.$.$.B.&Xi.h                                     - V K =.=X2X=.S J J L J L X.X.X.O.O.#.#.t.t.t.t.t.t.#.t.O.O.t.O.O.O.O.O.O.L ",
"P 3.O.L 3.3.:.u.#.#.#.%.J..                   .             . 1 Y X.X.$.%.=.$.K F +.f.F J X.X.X.X.O.O.O.#.#.t.#.t.t.O.O.O.O.O.O.O.O.L L J J ",
"L O.t.3.L $.>.k.#.$.i.^ .                 X % 1 X       . . 4 H.X.X.X.X...X.F J K T.*XK J J J X.X.X.X.O.O.O.#.t.#.O.O.O.O.O.O.O.O.O.L L J J ",
"O.%.O.t.O.' 6.K :.$.' #                   4 *.E.y 2 1 = 2 , Y.@.X.@.X.X.X.J J J J S J J S X.X.J L X.X.O.O.O.#.O.O.O.X.O.%.O.O.O.X.X.J J K J ",
"O.o.O.O.! [.{.6.#.#.$                   @ k @.%.b.G.A.Y Y.X.X.@.X.@.X.X.X.J F J J J K S J | J X.X.X.O.X.O.X.O.X.O.X.X.L X.X.L F J F F J F S ",
"O.K X.X.=..XoXF.%.@.8 . .             * U X.%.;.$.@.@.@.@.@.X.X.L X.L X.J J J J S J J J J X.J X.L X.X.L X.X.X.L X.J J J X.| J G W G F J J F ",
"L J ;.@.X.P &.@.@.;.Z.#             @ U g.X.@.@.X.@.@.X.X.@.X.L X.X.J J J J J F J J J L J O.O.J L J L L L F X.F F J J F S F G { }.[ S J S X.",
"F X.X.X.X.J F @.@.@.f.( X         @ k J K o.@.@.X.X.@.@.@.X.X.L X.J J J S J J J L J X.L J L L X.J J J J J L J F F J L F F F G } 2.[ J J J L ",
"J S S J F X.X.@.@.@.@.=.( .   . 4 l @.X.X.X.@.X.@.X.X.X.X.X.X.J J J X.J J J X.L L X.J L X.J J L J K J J J J X.J J J J F S X.F B U G F J X.X.",
"S J F F J J X.X.X.@.@.X.=.x Y B P :.l.#.X.X.X.@.X.X.X.X.X.| X.J J J X.J J X.L L L X.X.L L J X.S X.F S J J J J J J J J S | | J F J J J X.J L ",
"J S &.5.J J X.X.X.X.X.X.X.o.o.o.O.c.$X:.X.X.X.X.X.X.X.X.X.X.L X.X.L X.L X.J L O.L L L L X.J J J S J S J J L J L J J J | | X...D A | | J X.J ",
"S K -.q.F F S J J X.X.X.n.7Xf.o.X.:.v.:.X.X.X.X.X.O.X.O.X.X.X.L X.L L X.L X.L L L O.L O.L F J J S J S J J J J J J J F K J S J F G S J X.J X.",
"A A  .K D | S F L X.@.o.+.E.o.o.X.@.$.@.X.X.X.| J X.X.L X.X.L L L X.L L L X.X.@.O.H J F X.S S S J S J S J S J J J J L J J S F J L F K X.J J ",
"X.F S S J S J F X.X.| %.;Xn.%.X.X.X.X.O.$.X.X.J J L L X.L L L L L L L L L F m X.o.o.X.F S J S J S J S J S J S J J J J J o.J F J J L J X.J J "
};
