/* XPM */
static char *result[] = {
/* columns rows colors chars-per-pixel */
"70 73 204 2 ",
"   c #040005",
".  c #04040B",
"X  c #08070E",
"o  c #170A0E",
"O  c #040610",
"+  c #050913",
"@  c #090A14",
"#  c #040D1B",
"$  c #090E1A",
"%  c #120A11",
"&  c #03101F",
"*  c #0D131E",
"=  c #030F20",
"-  c #041325",
";  c #091424",
":  c #041529",
">  c #0B172C",
",  c #03192E",
"<  c #0C1A2D",
"1  c #041C35",
"2  c #091C36",
"3  c #031E3A",
"4  c #0B1E38",
"5  c #101E32",
"6  c #03223C",
"7  c #08263F",
"8  c #1D2834",
"9  c #142439",
"0  c #2C323D",
"q  c #543839",
"w  c #6B382A",
"e  c #032443",
"r  c #032A46",
"t  c #092D47",
"y  c #032B4D",
"u  c #092D4E",
"i  c #042648",
"p  c #162D48",
"a  c #04324C",
"s  c #02384E",
"d  c #0B314F",
"f  c #123148",
"g  c #1C344B",
"h  c #123E49",
"j  c #022D53",
"k  c #0A2E53",
"l  c #042E5A",
"z  c #092E59",
"x  c #033355",
"c  c #0A3254",
"v  c #033954",
"b  c #02345C",
"n  c #0A345C",
"m  c #02395E",
"M  c #0B3B5D",
"N  c #0C3956",
"B  c #143C53",
"V  c #1F3957",
"C  c #19365C",
"Z  c #153B5D",
"A  c #19395C",
"S  c #163258",
"D  c #2F2D43",
"F  c #23334E",
"G  c #363343",
"H  c #202F56",
"J  c #2F3658",
"K  c #273A59",
"L  c #333558",
"P  c #303E5A",
"I  c #062E62",
"U  c #0C2F63",
"Y  c #092A68",
"T  c #023563",
"R  c #0A3563",
"E  c #023B64",
"W  c #0B3B64",
"Q  c #033669",
"!  c #023C6B",
"~  c #0B3C6B",
"^  c #0B376A",
"/  c #133661",
"(  c #123C64",
")  c #1B3C61",
"_  c #123D6B",
"`  c #1C3F6D",
"'  c #1B3360",
"]  c #043673",
"[  c #033D72",
"{  c #093C74",
"}  c #013E7B",
"|  c #0D3B7A",
" . c #073576",
".. c #123E7E",
"X. c #6B3D58",
"o. c #593860",
"O. c #02425F",
"+. c #0D415E",
"@. c #184951",
"#. c #14435C",
"$. c #1A4858",
"%. c #1C465E",
"&. c #25454D",
"*. c #245447",
"=. c #3B554F",
"-. c #28475D",
";. c #224A5A",
":. c #325658",
">. c #014165",
",. c #0B4264",
"<. c #02426D",
"1. c #0B426C",
"2. c #094A6A",
"3. c #144365",
"4. c #194365",
"5. c #194966",
"6. c #14436B",
"7. c #1A436B",
"8. c #134A6B",
"9. c #194B6B",
"0. c #024372",
"q. c #0B4372",
"w. c #0D4974",
"e. c #03437A",
"r. c #09457B",
"t. c #0B4979",
"y. c #07497D",
"u. c #114273",
"i. c #134A74",
"p. c #1A4B74",
"a. c #13497A",
"s. c #1C4E7C",
"d. c #1C4776",
"f. c #1C547D",
"g. c #1F5D78",
"h. c #264E60",
"j. c #2F4A60",
"k. c #23456B",
"l. c #244D6C",
"z. c #254468",
"x. c #334A6D",
"c. c #2A556C",
"v. c #26596B",
"b. c #365669",
"n. c #2A5175",
"m. c #25547A",
"M. c #28517A",
"N. c #2B597F",
"B. c #215C78",
"V. c #3B5E7C",
"C. c #345979",
"Z. c #3F6462",
"A. c #33627D",
"S. c #316A7F",
"D. c #5B4D4C",
"F. c #424459",
"G. c #415A5E",
"H. c #59445A",
"J. c #794A54",
"K. c #446254",
"L. c #526255",
"P. c #4E7755",
"I. c #637449",
"U. c #5F4068",
"Y. c #455664",
"T. c #415E7E",
"R. c #416667",
"E. c #486B69",
"W. c #557B6E",
"Q. c #466C72",
"!. c #894350",
"~. c #76887A",
"^. c #043E81",
"/. c #024283",
"(. c #0E4F84",
"). c #074B8B",
"_. c #1C5482",
"`. c #0D509F",
"'. c #224F84",
"]. c #215887",
"[. c #2C5B81",
"{. c #2A5783",
"}. c #345C8A",
"|. c #3F688B",
" X c #316286",
".X c #2D6494",
"XX c #376797",
"oX c #39719F",
"OX c #416689",
"+X c #426D97",
"@X c #4C7999",
"#X c #577E99",
"$X c #5A7899",
"%X c #427CA2",
"&X c #7AA487",
"*X c #5483A7",
"=X c #6898AD",
"-X c #6E9CBE",
";X c #72A1C4",
":X c #96A8B6",
">X c #99ADB9",
",X c #95B0BE",
"<X c #87A8B9",
"1X c #96B4C2",
/* pixels */
"x a x c n b l x l.x.S z t y j l b b b b b m m n M T E E W ^ E 3.K.=.C T ] [ T T m b b x l j j j l j j j j x y a r t t y j j j y j j x x l j ",
"x c.B c j l l j j k j l I b I Y l b b b b b x +X XW M E E E E ~ E W / Z M ! ! E T m b b x j j j j x l j j a j y y r y j j y j y j j l l x c ",
"x c.B a j l l l z z n Q U C ^ { l n l b b b T N.p.E E m T W W / 6._ s.8.m E E E E m m b b j j j j l j j j y y j j x j j y j y j y j j j j j ",
"x a a y j l l n Q l x m H X.H.5.n T b b x b x T M E O.E E E T 5.V.) ( _ ) W E E E T T m T l l l x l b x x j j j j j j j j j j j j j j j j j ",
"a a j j j b b b T b j n L !.J.B M.R x x b x b T m T E E m >.>.9.OX3.W A F.) E E E E m m m l x l b b b b x l l l j l x x l x b x c b x a j r ",
"x j l l W W x b I x c R ' D P Q s.W b T b b i 6 r m >.E E E ,.7.C.3.E ( A ( E E E E E m b e e y b b b b b T b x x x x b x x x x s x x x x x ",
"x l l n 7.3.x b T b m E E W _ ! ! E T T T T :   + y E >.>.E M k.}.4.T E Q T 1.~ T E E E i .   , T l b b b b T m T T b m m x b B R.-.c x x x ",
"b T x x M n n W T E E E >.E >.E ! ! ! ! Q T 3 .   , m E E >.M M M M E E ~ E 2.~ T E ! E #   O e T b m x m T T m E T T E v c n %.E.j.x x x x ",
"b b m m M m M E E E >.E E E >.<.<.<.! ! ! Q x #   O y ! ! ! ~ E E E E E E E >.~ <.! E e   . : T ! Q b T E m m T E m E b v v T N h c x x b b ",
"T E m >.>.m >.>.E E E E >.>.E >.0.<.<.<.<.<.! e O   + b ! <.<.<.<.~ E >.E >.E ~ E <.m + . + a ! ! W Z W T E E E E E m b x m T x s m b x b x ",
"W E E E E >.>.m E E W ~ E >.>.<.<.<.<.<.0.<.<.E -     < ! <.0.[ <.<.>.E E E E ! <.! #   . 3 ! ~ W Z G.h.W E E T T T m m b b T v x T T b m b ",
"E E >.E <.E E E >.>.E ,.W E >.<.0.<.<.<.<.0.<.<.x +   . y ! [ 0.! ! <.! E ! E 1.! e   . - ] e.~ ~ v.~.Q.,.E E E m E E b b T T v T T n m m m ",
"E E E >.! ! E E E >.6.{.^ E <.<.<.<.<.<.<.<.<.! ! 1 .   O ! <.<.<.[ 0.! ! ! 1.0.1..   . r >.0.~ ! _ Y.l.E T T T T T T m m T b x b T m b m m ",
"! >.E 1.E <.>.>.>.E p.;X[.,.2.<.<.0.[ e.e.<.<.<.! E -     6 E e - # . . $ ; e _.9   . 1 <.>.<.! ! ! Z ^ T I T T T T T T b m b m T b b m m m ",
">.>.>.>.>.E >.>.>.E m m.3.1.! 0.<.[ [ <.<.<.0.<.! ! l .                             . <.! ! ! ! ! Q T Q T T T T T T T Q T n x b m T m m b b ",
"1.E E >.<.>.>.E <.1.! 1.1.~ 0.[ <.>.>.<.q.2.<.<.! Q e                                 b ! ! ! ! ! Q T Q Q T Q T T ! Q T ^ R l c n T b m m b ",
"[ E E <.>.>.E <.<.<.2.<.0.0.e.0.e.E 8.S.B.<.e.<.E 1     .                             . 1 T ! T Q Q Q T Q T Q T Q E Q Q T R ` ( l T T m m x ",
"~ E ! ! ! ! ! <.<.<.0.0.0.e.0.0.[ 2.,.8.1.1.<.b : .   + : $ @                 + : # O     : b ! ! Q ! Q E Q E Q Q T T ^ I ( }.M.n T E m m m ",
",.E ! ! ! E ! 1.2.<.0.0.0.0.0.0.e.<.1.O.>.! ^ ,     . x ^ 7.F               . e ! ! y     . , T ! Q Q Q ! T ! T T T T T T R z l x b E m T m ",
"M ! T x y b ! ! <.<.<.0.0.0.0.0.<.0.<.e.[ E , .     # ^ T W B               + b ! ! E       . 3 T ! Q T T ! T ! ! T Q ! T T n c y x b m E m ",
"T b 3 - + , x ! <.0.0.0.0.0.0.<.0.0.0.e.! e O       O j Q T 2               O e T Q j         + e { N.6.T ! T Q Q T T T T T k 1 & - 6 b M >.",
"x ,       . - T 0.e.e.0.e.0.0.0.0.<.0.0.E -           - 1 1 X                 # 1 1 #           > z.#Xn.Q T Q ! Q Q Q Q T j 1       . , m E ",
"6           . : E 0.y.e.0.0.0.0.0.0.<.0.r O                                                     . p n.7.~ ^ Q ! Q Q Q T l > .           7 E ",
"@             . , E (.y.0.0.q.<.0.<.0.E 1                                                         2 / ^ Q d.[ ^ ! Q T l : .             O E ",
"                . : ! 0.0.<.0.0.0.0.<.x #                                                         - z ! Q a.! Q Q Q b : .                 E ",
",                 . - E 0.<.<.<.0.<.<.x : : - : : - - : ; > 8 0 0 > ; : : : : : : ; 5 > - : - : ; 2 z ^ Q ^ Q Q Q T : .                 # E ",
"l -                 . - E <.<.<.0.0.0.E T b b T n T T b T R x.:X>XV.n T T T T l n T R T b b b T T T E T Q ^ T Q T -                   # x E ",
"^ b :                   - ! 0.t.t.0.0.[ ! Q T T Q Q Q Q Q ^ k.$XT.( T E E T Q ^ Q Q Q ! ^ E Q Q Q ! T E Q ! ! E 3 .                 = j T T ",
"Q [ E -                   - 2._.f.q.e.E e 1 1 1 1 1 2 2 3 2 4 g 4 2 2 2 1 2 2 2 2 2 2 4 2 2 2 2 2 e b ! q.[ ! -                   # j b n m ",
"E ! ! m -                   - q.! ! <.r                                                         . @ c [ ,.+.;                   = j b b b b ",
"E <.<.<.m -                   ; ! 2.>.a @                                                         @ k q.M 8 .                 - x E b b b m ",
">.>.<.! 0.m - .                 > >.2.B X                                                         @ x <.6 .                 - x ! ! T b b b ",
"E 2.0.! 0.0.b ; .               X v g.;.@                                                         @ c <.-                 - x <.<.! E E m m ",
">.<.0.0.0.<.q.b - .             O m q.d O                                                         @ v 0.-               ; c ! <.! ! E 2.,.T ",
"W w.w.0.<.<.0.0.b - .           , 2.~ u @                                                         # c 0.r .         . - ) ].t.! ! ! >.i.i.m ",
"C.%Xi.<.0.0.} <.1.x :         ; m [ t.c O                                                         @ x 0.>.6         - x _..Xa.0.<.0.2.! ! E ",
"OX-Xf.0.0././.>.O.<.m , + $ < g q.[ a.K @                                                         @ k 1.0.<.e , & , x { q.t.q.0.0.0.<.<.>.E ",
"7. Xi.q.<.0.e.q.2.0.0.E k c / 6.r.` F.q %                                                         @ k q.<.0.<.E x E 0.~ q.0.! 0.0.0.e.>.>.! ",
"T ~ [ 0.<.,.6.S.g.0.0.e.e.0.<.0.1.4.D.w o                                                         @ k { 0.0.0.0.<.0.0.0.0.<.0.0.<.0.e.0.<.<.",
"E [ [ 0.<.~ 4.Z.v.<.e.q.q.0.0.2.0.r.l.G %                                                         @ u ! <.0.0.<.0.0.<.0.0.0.<.0.0.0.[ } e.E ",
"! E ! [ >.<.{ 7.i.q.e.0.0.0.0.<.<.e.q.u @                                                         @ y ! <.0.<.0.0.0.q.0.0.0.0.0.0.0.<.e.e.! ",
"! b T ! 0.).`.).e.[ 0.<.0.<.<.2.<.[ 2.u @                                                         X y ! <.<.<.0.0.2.0.0.0.<.0.0.0.0.<.2.>.! ",
"T T E ! [ e.).e.e.0.0.0.0.0.<.<.0.0.0.a @                                                         @ y ] ! >.>.0.t.*.4.q.2.0.0.0.0.0.<.>.! ] ",
"T Q Q ! ! ! ! ! <.0.<.0.0.<.0.0.0.<.0.x @                                                         @ r [ ! >.O.e.'.&Xz.{ 0.0.0.0.1.w.2.<.[ Q ",
"T T Q Q ! ! ! ! ! 0.! 0.0.0.0.0.q.0.<.x @                                                         @ y Q ! <.>.0.<.@.W q.0.0.2.8.4.#Xg.~ Q T ",
"Q Q Q ! Q Q T ! ! ! <.[ 0.0.<.0.0.<.0.x @                                                         @ y ! <.q.<.0.<.1.1.0.0.<.i.@X,X,X[.E b m ",
"T Q Q Q Q ! ! ! ! ! ! ! <.<.<.[ ! <.[ y @                                                         @ y [ 0.0.0.<.0.e.0.0.0.<.,.3.<X,X*Xp.N n ",
"T Q Q ! Q T ! Q Q Q ! ! ! ! ! ! ! ! ! t @                                                         O u [ 0.0.<.0.0.0.0.0.0.0.2.8.@XV.p.1.b T ",
"T Q Q Q Q Q ! T Q ! ! ! ! ! ! ! ! ! Q i @                                                         @ k 0.e.<.<.<.0.<.e.0.0.0.0.t.w.1.1.E M ^ ",
"T T Q Q ! Q Q ! ! ! ! ! ! ! ! ! ! ! ! j @                                                         O y [ 0.0.<.>.<.2.e.0.0.0.0.0.0.0.<.<.T Q ",
"T T T Q ! Q ! ! ! ! ! ! ! <.! 0.<.! <.y O                                                         + a <.0.e.<.>.>.q.e.e.0.0.0.0.0.0.<.<.E E ",
"b T T ! ! Q [ ! [ ! [ <.! ! [ ! ! ! ! j +                                                         - x <.<.q.^.d.( | 0.0.0.0.0.0.0.0.<.>.! E ",
"Q T T ! ! ! ! [ [ <.0.! 0.0.! ! ! <.~ b -                                                         , m >.>.E 9.W.b.| 2.<.0.0.0.0.0.0.<.<.E E ",
"T T E ~ ! ! [ ! ! ! ! ! ! ! <.[ 0.~ W W 1                                                       O 6 E >.>.E ( P.:.| >.>.0.<.<.<.<.<.<.1.1.E ",
"T T W Q ! ! [ [ [ <.[ <.! ! ! ! Q ~ 1._ c &                                                     , m >.>.>.E ] 5.#.{ >.<.<.<.<.<.<.<.>.w.>.E ",
"T Q E Q ! [ ! [ ! ! ! ! 0.<.[ [ [ 1.l.8.W b 1 .                                             O 1 b >.! >.<.0./.[ ~ ! <.<.<.<.<.<.<.! 2.%X8.E ",
"M m E E ! <.[ ! ! [ <.! ! 0.~ ! { 1.1.1.W <.Q b 1 .         . . 1 e 3 3 i : .           O y x T E E <.>.E 0.<.<.1.! E <.<.>.! <.<.E E i.2.E ",
"#.N E >.>.! ! ! ! <._.<.! ! ! ! t.w.! ! ! ! ! ! y O           O f A.l.7.7.5 .           O l T E E <.E E >.>.<.<.E ! <.E E >.>.E >.>.>.E E E ",
"=Xm. . .! ! [ [ ~ ~ oXXXq.! ! ~ [ ! 0.! ! <.! ! y O           . 7 3.M n +XP X           + l T T E ! >.<.<.E ! >.<.E >.>.>.>.>.E >.E E E E E ",
"5.m ]  .m >.0.~ 1.! t._.! ! ! ~ ! ! ! ! [ ! ! ! y O           O 6 m b _ }.F X           + x T E E E E <.E <.>.! E <.<.E E E >.E E E E E E m ",
"m O.E m O.m e.~ ^ ! [ ! ! ! ! ~ ! ! ! ! ! ! ! ^ j O           O 6 Q Q ^ { 2 .           O j m T E E E E ! >.! >.<.! E E E E E E E E E m T b ",
"M ! >.v m ~ { 0.! ! ! [ ! ! ! ! Q ! Q Q Q ! ! { j .           O e T T T Q > .           O j T T T T m T E ! >.! E E E E E E E E T E m m m b ",
"Q Q E >.T &.&.M [ ! ! Q Q ! ] ! Q Q Q Q Q Q ! _.z O           O 6 Q T T T , .           + j b T T T T E E E E E E E T E W E T m T b T n x l ",
"E W T E Z L.I.&.^ ! ! ] ! Q Q Q Q ! Q T Q ! ^ Q y O           . e T T T m 1 .           O l T m T T E T T E T E E T m T T T m m b b x x b x ",
"T M Q Q ( E.W.z.~ ] Q Q ! Q Q ! T Q ! _ 6.Q ^ ^ j O           + i T T b T 1 . .         + x T T m T T m T m T b b b b T I b v c C N x b l x ",
"b m Q Q T M W ] Q Q Q Q Q ! E E T E E 6.7.R ! Q T 1 O .     + 1 x T m b b j : .       O 6 E E m m b m T m b T x b b b x x x c L U.K b l T b ",
"x T T T T n x Q Q Q Q Q Q ! T E T E T T n Q Q Q Q I i 3 1 3 i b T b T b b b j 3 1 1 3 e x T m T b b b b b b b b b b m x l x v L o.J x b b b ",
"b l b b b b T Q Q Q Q Q T T T T T T Q T T T Q T T T T T T T T m T b b b b b b m m x E m T n m b b x b b m m b b x m x b n I x c S c b b T T ",
"n l l v x b Q T T T Q T T Q E n E ! r.Q T T T Q T T T T T I b b b T b b b m m m m m m m m m b b b b l b b b b m b b l l I I I x b b b T T b ",
"b z ( $.x T l T T T T T R R T b E y.(.q.T T I T T T T T T T T T m m T m T m T m T m m m T n b b b l b b b b b b m b b I I T I z k I I b b m ",
"l n S ;.x x T b b E T T 7.-X_ R Q [ y.! T T T T T E T E E T T m T T T T T m m T m E m m m l b l l x b l b b m b m b b x b I x b c l T b b m ",
"z z U n l I l x b T Q ^ ^ M.R R T Q Q Q T T T T m T T m T T m m m m m m m T T T E v b b T l l b b l l b l b b l x b b b b l x b m x n T n T ",
"n x x I I l b x T T T R XXd.~ T T T T E 1.Q T x b m b T m m m T m E m m m x s T T T n x I b l x l b l b l b l b b T l n T m x b b m T n b b "
};
