/* XPM */
static char *_6a686f699b84d63c2eda2c05ba6f6bf62aDVsU5cxLY2dwS[] = {
/* columns rows colors chars-per-pixel */
"105 105 41 1 ",
"  c black",
". c #3A0000",
"X c #3A3A00",
"o c #00003A",
"O c #3A003A",
"+ c #660000",
"@ c #000066",
"# c #3A0066",
"$ c #903A00",
"% c #B66600",
"& c #B66666",
"* c #B6903A",
"= c #DB903A",
"- c #B69066",
"; c #DB9066",
": c #DBB666",
"> c #FFB666",
", c #003A90",
"< c #3A3A90",
"1 c #663A90",
"2 c #0066B6",
"3 c #3A66B6",
"4 c #6690B6",
"5 c #3A90DB",
"6 c #6690DB",
"7 c #66B6DB",
"8 c #66B6FF",
"9 c #FFB690",
"0 c #FFB6B6",
"q c #FFDB90",
"w c #FFDBB6",
"e c #FFFFB6",
"r c #B6B6DB",
"t c #90DBFF",
"y c #B6DBFF",
"u c #B6FFFF",
"i c gray86",
"p c #FFDBDB",
"a c #FFFFDB",
"s c #DBFFFF",
"d c white",
/* pixels */
"                                                                                                         ",
"                                                                                                         ",
"                                                                                                         ",
"                                                                                                         ",
"                                                                                                         ",
"                                                                                                         ",
"                                                                                                         ",
"                                                                                                         ",
"                                                                                                         ",
"                                                                                                         ",
"                                                                                                         ",
"                                                                                                         ",
"                                                                                                         ",
"                                                                                                         ",
"                                                                                                         ",
"                                                                                                         ",
"                                                                                                         ",
"                                                                                                         ",
"                                                                                                         ",
"                                                                                                         ",
"                                                                                                         ",
"                                                                                                         ",
"                                                                                                         ",
"    5ddddddp-X      3ddddddddd=   5dq.     7de+  5dq.            2sde+        3dda*           5dda$      ",
"    5dddddddda%     5ddddddddd=   5dq.    5dd%   5dq.            8ddd%        5ddde+         @uddd%      ",
"    5dq.  o3sde+    5dq.          5dq.   2dd=    5dq.           @uerdq.       5dpsd=         5d0ud%      ",
"    5dq.    2dd=    5dq.          5dq.  ,sd>     5dq.           2d>,sa$       5dq6dq.       @ud&ud%      ",
"    5dq.    @ud=    5dq.          5dq. @udq.     5dq.           8d%otd=       5dq<sd%       2dq#ud%      ",
"    5dq.    @ud=    5dq.          5dq.otde+      5dq.          ,se+ 5dq.      5dqOtd>      otd=@ud%      ",
"    5dq.    2dd%    5dq.          5dq.8da$       5dq.          5d>  ,sd%      5dq.2da$     ,se+@ud%      ",
"    5dq.  o4sd>     5dq.          5dq6da$        5dq.         otd%  otd>      5dq.@ud=     8d> @ud%      ",
"    5dddddddd:.     5dddddddd=    5dpsd>         5dq.         ,se+   5de+     5dq. 5dq.   @ua$ @ud%      ",
"    5ddddddd;       5dddddddd=    5dq6dd%        5dq.         8d>    ,sd%     5dq. ,sd%   5dq. @ud%      ",
"    5dq. o7dd=      5dq.          5dq.8da$       5dq.        @ud%    otd>     5dq. otd>  @ud%  @ud%      ",
"    5dq.   5da$     5dq.          5dq.@ude+      5dq.        2ddpiiiiisda$    5dq.  2da$ 2de+  @ud%      ",
"    5dq.   @ud>     5dq.          5dq. ,sd>      5dq.        8ddddddddddd=    5dq.  @ud=otd=   @ud%      ",
"    5dq.    5de+    5dq.          5dq.  5dd=     5dq.       @ud%       8dq.   5dq.   5de1sa$   @ud%      ",
"    5dq.    ,sd=    5dq.          5dq.   8da$    5dq.       5de+       2da$   5dq.   ,sddd>    @ud%      ",
"    5dq.    otdq.   5dq.          5dq.   @ude+   5dq.      otd>        @ud>   5dq.   otddd%    @ud%      ",
"    5dq.     2dd%   5ddddddddd>   5dq.    ,sdq.  5ddddddddq<sd%         8de+  5dq.    2ddq.    @ud%      ",
"    5dq.     @yd>   3ddddddddd>   5dq.     5dd%  5ddddddddq6de+         2da$  5dq.    @yd=     @ud%      ",
"                                                                                                         ",
"                                                                                                         ",
"                                                                                                         ",
"                                                                                                         ",
"                                                                                                         ",
"                                                                                                         ",
"                                                                                                         ",
"                                                                                                         ",
"                                                                                                         ",
"                                                                                                         ",
"                                                                                                         ",
"                                                                                                         ",
"                                                                                                         ",
"                                                                                                         ",
"                                                                                                         ",
"                                                                                                         ",
"                                                                                                         ",
"                                                                                                         ",
"                      2sde+        5dq.            2sde+        3ddw+      @ud%    5dq.                  ",
"                      8ddd%        5dq.            8ddd%        5ddd>      @ud%    5dq.                  ",
"                     @uerdq.       5dq.           @uerdq.       5ddda$     @ud%    5dq.                  ",
"                     2d>,sa$       5dq.           2d>,sa$       5d9tdq.    @ud%    5dq.                  ",
"                     8d%otd=       5dq.           8d%otd=       5d>2dd%    @ud%    5dq.                  ",
"                    ,se+ 5dq.      5dq.          ,se+ 5dq.      5d>otde+   @ud%    5dq.                  ",
"                    5d>  ,sd%      5dq.          5d>  ,sd%      5d> ,sd=   @ud%    5dq.                  ",
"                   otd%  otd>      5dq.         otd%  otd>      5dq. 8de+  @ud%    5dq.                  ",
"                   ,se+   5de+     5dq.         ,se+   5de+     5dq. ,sd>  @ud%    5dq.                  ",
"                   8d>    ,sd%     5dq.         8d>    ,sd%     5dq.  5da$ @ud%    5dq.                  ",
"                  @ud%    otd>     5dq.        @ud%    otd>     5dq.  @udq.@ud%    5dq.                  ",
"                  2ddpiiiiisda$    5dq.        2ddpiiiiisda$    5dq.   2dd%@ud%    5dq.                  ",
"                  8ddddddddddd=    5dq.        8ddddddddddd=    5dq.   otdq#ud%    5dq.                  ",
"                 @ud%       8dq.   5dq.       @ud%       8dq.   5dq.    2dd&ud%    5dq.                  ",
"                 5de+       2da$   5dq.       5de+       2da$   5dq.     8dpsd%    5dq.                  ",
"                otd>        @ud>   5dq.      otd>        @ud>   5dq.     ,sddd%    5dq.                  ",
"                ,sd%         8de+  5ddddddddq<sd%         8de+  5dq.      5ddd%    5dq.                  ",
"                5de+         2da$  5ddddddddq6de+         2da$  5dq.      otda$    5dq.                  ",
"                                                                                                         ",
"                                                                                                         ",
"                                                                                                         ",
"                                                                                                         ",
"                                                                                                         ",
"                                                                                                         ",
"                                                                                                         ",
"                                                                                                         ",
"                                                                                                         ",
"                                                                                                         ",
"                                                                                                         ",
"                                                                                                         ",
"                                                                                                         ",
"                                                                                                         ",
"                                                                                                         ",
"                                                                                                         ",
"                                                                                                         ",
"                                                                                                         ",
"                                                                                                         ",
"                                                                                                         ",
"                                                                                                         ",
"                                                                                                         ",
"                                                                                                         ",
"                                                                                                         ",
"                                                                                                         ",
"                                                                                                         ",
"                                                                                                         ",
"                                                                                                         "
};
