/* XPM */
static char *result[] = {
/* columns rows colors chars-per-pixel */
"50 50 176 2 ",
"   c #211E38",
".  c #291F38",
"X  c #25223C",
"o  c #2B243C",
"O  c #2F283F",
"+  c #35233A",
"@  c #39263B",
"#  c #35283F",
"$  c #3B2B3E",
"%  c #3D343F",
"&  c #452639",
"*  c #452B3C",
"=  c #4A2C3E",
"-  c #4C303F",
";  c #2D2C42",
":  c #322C42",
">  c #3C2D42",
",  c #342F48",
"<  c #2B3442",
"1  c #2E3845",
"2  c #323146",
"3  c #3C3645",
"4  c #373D42",
"5  c #3C3B44",
"6  c #363348",
"7  c #3B3649",
"8  c #37394A",
"9  c #3D394A",
"0  c #412B40",
"q  c #4C2E40",
"w  c #433241",
"e  c #4B3142",
"r  c #413B45",
"t  c #4E3A45",
"y  c #453449",
"u  c #443E4B",
"i  c #4E3B4B",
"p  c #503543",
"a  c #523C46",
"s  c #543648",
"d  c #533C4C",
"f  c #403F50",
"g  c #573E50",
"h  c #2F4546",
"j  c #354246",
"k  c #354649",
"l  c #3F4349",
"z  c #344A4A",
"x  c #3B4C4D",
"c  c #3C4450",
"v  c #414048",
"b  c #4B434D",
"n  c #464E4F",
"m  c #4A4B4E",
"M  c #56444B",
"N  c #59464E",
"B  c #534B4E",
"V  c #58494F",
"C  c #45504F",
"Z  c #444352",
"A  c #4A4553",
"S  c #454C52",
"D  c #4B4955",
"F  c #4D4B59",
"G  c #554153",
"H  c #5C4654",
"J  c #554E50",
"K  c #5B4B54",
"L  c #544C5A",
"P  c #594A5B",
"I  c #435256",
"U  c #4B5251",
"Y  c #455558",
"T  c #4D5B5B",
"R  c #525352",
"E  c #5D5556",
"W  c #5D5957",
"Q  c #53525E",
"!  c #5A525B",
"~  c #555C5D",
"^  c #5E5A59",
"/  c #644E5C",
"(  c #615656",
")  c #605857",
"_  c #62535C",
"`  c #645C5B",
"'  c #67615F",
"]  c #5F5463",
"[  c #505C60",
"{  c #5C5B62",
"}  c #674F60",
"|  c #665463",
" . c #6A5564",
".. c #645B64",
"X. c #6A5A64",
"o. c #61576A",
"O. c #6E5768",
"+. c #62596D",
"@. c #6B5C6C",
"#. c #725C6D",
"$. c #576161",
"%. c #5A6263",
"&. c #5B6771",
"*. c #666062",
"=. c #6A6463",
"-. c #6C6867",
";. c #63626A",
":. c #6B656C",
">. c #6D6B6B",
",. c #72606F",
"<. c #706E6E",
"1. c #72706F",
"2. c #676775",
"3. c #6D6470",
"4. c #666971",
"5. c #6C6C74",
"6. c #6E6B78",
"7. c #746372",
"8. c #726D72",
"9. c #7A6877",
"0. c #756F7A",
"q. c #7D6B7B",
"w. c #6D7076",
"e. c #767676",
"r. c #7A7176",
"t. c #76747B",
"y. c #79757A",
"u. c #7B797B",
"i. c #82777F",
"p. c #6F7480",
"a. c #677F86",
"s. c #757484",
"d. c #7F7680",
"f. c #767D83",
"g. c #7B7E80",
"h. c #7D7F8D",
"j. c #817680",
"k. c #847E85",
"l. c #887C87",
"z. c #837788",
"x. c #867B8A",
"c. c #8B7C8B",
"v. c #7B8182",
"b. c #7A878F",
"n. c #7E888E",
"m. c #7C8694",
"M. c #7E8A93",
"N. c #868087",
"B. c #85858C",
"V. c #8B828C",
"C. c #82898E",
"Z. c #8E8590",
"A. c #858B92",
"S. c #8B8B96",
"D. c #868C9B",
"F. c #8B8D9C",
"G. c #918592",
"H. c #968897",
"J. c #948B98",
"K. c #849196",
"L. c #86949A",
"P. c #89979E",
"I. c #88989F",
"U. c #90939D",
"Y. c #8596A3",
"T. c #8A97A4",
"R. c #8799A5",
"E. c #8B99A3",
"W. c #8B9EAB",
"Q. c #9595A3",
"!. c #949FAB",
"~. c #8EA2AB",
"^. c #92A1AD",
"/. c #8FA6B0",
"(. c #90A7B1",
"). c #92AAB5",
/* pixels */
"H.H.V.u.Z o 5.C.).Q.H.H.H.H.H.H.H.H.H.H.k.e.X Q v.~.^.H.H.H.H.H.H.H.H.H.H.H.H.u.{ o { g.).^.H.H.H.H.",
"k.k.N.V.P > M.P.K.B.k.k.k.k.k.N.k.k.k.k.N.V.+ 3.I.L.C.N.k.k.N.l.k.N.k.k.k.k.N.V.:.$ p.T.K.C.k.k.k.k.",
"e.e.u.V./ p E.E.u.e.e.e.e.e.e.e.e.e.y.e.N.G.& s.^.g.e.e.e.e.e.e.e.e.e.e.e.e.e.V.7.q h.^.u.e.e.e.e.e.",
"e.e.y.u.H q V.V.u.e.e.e.e.e.e.e.e.e.e.e.e.e.& 7.G.u.e.e.e.e.e.e.u.e.e.e.e.e.e.u.X.q q.G.u.e.e.e.e.e.",
"e.e.e.-.J l c.Z.e.e.e.e.e.e.e.e.e.e.e.e.>.-.% 5.J.u.e.e.e.e.e.e.e.e.e.e.e.e.e.-.W l y.H.u.e.e.e.e.e.",
"e.e.<.` n x V.V.u.e.e.e.e.e.e.e.e.e.e.e.=.` h w.G.i.e.e.e.e.e.e.e.e.e.e.e.e.e.` R z t.J.u.e.e.e.e.e.",
"e.e.<.` S x Z.V.e.e.e.e.e.u.e.e.u.e.>.' ` ` h w.G.u.e.e.e.e.e.e.e.e.e.u.e.e.e.` K e q.G.y.e.e.e.e.e.",
"e.e.8.` n l c.Z.u.e.e.e.e.e.e.e.e.1.-.=.' ) % w.G.u.e.e.e.e.e.e.e.e.e.e.e.e.e.' V w q.G.u.e.e.e.u.e.",
"e.e.1.` a q c.Z.u.e.e.e.e.e.e.e.e.` -.e.-.` & 7.G.i.e.e.e.e.e.e.e.e.e.e.e.e.e.` R k t.Z.u.e.e.e.e.e.",
"=.=.` a @ : r.l.V.u.e.-.=.*.=.=.=.` ` =.K p . ] N.V.N.e.e.e.e.<.=.e.>.=.=.=.=.d y < ;.k.V.k.e.e.e.e.",
"W E V & . o *.0.c.y.>.E E E R E W W E E t &   F e.l.i.<.8.>.>...E :...E ( W E * + X ] 5.l.j.8.>.5.>.",
"z r * o X   ; : = l z X X X X 1 x z r = @     ; o * = = - $ X X X X $ q = r z o X X X ; q q * o X o ",
"a.6.@.+.+.+.+.+.#.3.4.F 6 o D &.v.2.3.@.@.o.+.+.o._ | #.#.| D 8 X Z 4.0.7.3.5.+.o.o.+.+.#.X.K : 2 F ",
"^.U.G.S.G.G.G.Z.G.Z.G.u.F 7 t.L.~.A.Z.G.G.G.Z.c.l.r.u.G.Z.V.e.L ; t.L.W.J.Z.Z.G.G.G.Z.G.V.V.r.9 Z e.",
"g.u.u.u.y.u.u.u.u.u.u.V.| g R.L.g.u.u.u.u.u.u.<.=.` -.u.u.k.c.O.w T.I.u.u.u.u.u.u.u.y.u.u.k.c.M K e.",
"e.e.e.e.e.e.e.e.e.e.y.k./ g F.A.e.e.e.e.e.e.-.8.r.<.e.e.e.u.d.| q F.A.e.e.e.e.e.e.e.e.e.u.u.j.a H e.",
"e.e.e.e.e.e.e.e.e.e.e.8.K g c.k.e.e.e.e.e.1.' i.G.u.e.e.e.e.<.K e c.V.e.e.e.e.e.e.e.e.e.e.e.1.t M e.",
"e.e.e.e.e.e.e.e.e.e.e.` S Y Z.k.e.e.e.e.-.' G.N.e.e.e.e.e.<.` U x V.k.e.e.e.e.e.e.e.e.e.e.<.) n T e.",
"e.e.e.e.e.u.e.e.e.e.e.W U Y V.k.e.e.e.e.1.-.V.u.e.e.e.e.e.>.) B r V.l.e.e.e.e.u.e.e.e.e.e.>.) x T e.",
"e.e.e.e.e.e.e.e.e.e.e.) U Y V.V.e.e.e.e.e.e.e.e.e.e.e.e.e.>.E M e c.N.e.e.e.e.e.e.e.e.e.e.>.) x T w.",
"e.e.e.e.e.e.e.e.e.e.e.` C Y V.N.e.e.e.e.e.e.e.e.e.e.e.e.e.>.) M - c.N.e.>.>.e.e.u.e.e.e.e.<.) x T e.",
"e.u.e.e.e.e.e.e.e.e.e.` C Y V.l.e.e.e.e.e.e.e.e.e.e.e.e.e.>.( M - c.N.e.' -.e.e.e.e.e.e.e.>.E x T e.",
"H.k.1.' >.e.' ) ^ ` E & + , :.k.H.u.e.e.e.e.` ` ` ` ` ) ` M & + X 5.N.G.u.<.` ) ` ` ` ` ` V & X Z e.",
"} ~ U a b Z 3 3 5 t e + X X u L | H K H A Z 3 3 r a a a n 5 . . X 9 P | ~ U n 7 3 3 3 3 a * +   ; l ",
"s A S s > ;   X O u d , , , , y s s s s 3 ;   o > i s s I c 6 , 6 , y s S I I 6 ;   o ; i y , 6 , , ",
"c.l.k.c.t.;.o 6 ;.n.Y.x.z.z.z.c.l.l.l.l.0.4.  D w.L.D.l.k.x.z.z.z.z.z.c.k.k.k.5.F X Q w.R.D.z.z.z.z.",
"V.V.l.V.N.z.> A C.P.P.V.V.V.V.l.c.c.V.V.N.k.o +.K.I.D.V.k.V.V.V.V.V.V.V.V.V.V.k.;.# 5.K.Y.F.V.V.x.V.",
"e.e.e.e.V.c.p ] ).C.e.e.e.e.e.e.e.e.e.e.V.H.& s./.v.e.e.e.e.e.e.e.e.e.e.e.e.e.G.9.q M.).u.e.e.e.e.e.",
"e.e.e.e.e.8.e / G.g.e.e.e.e.e.e.e.e.e.e.e.e.& 7.G.u.e.e.e.e.e.e.e.e.e.e.e.e.e.e...= i.G.e.e.e.e.e.e.",
"e.e.e.e.1.=.= H G.i.e.e.e.e.u.e.e.r.e.e.e.-.% 7.H.g.e.e.e.e.e.e.e.e.e.e.e.e.e.<._ = i.G.u.e.e.e.e.e.",
"e.e.e.e.-.( = H G.k.e.e.e.e.e.e.e.e.e.e.-.` h 6.G.u.e.e.e.e.e.e.e.e.e.e.e.e.e.` H q 9.c.u.e.e.e.e.e.",
"e.u.e.e.=.W r P G.k.e.e.e.e.e.e.e.e.e.e.=.) 5 7.H.u.e.e.e.y.e.e.e.e.e.e.e.e.e.' B r q.H.u.e.e.e.e.e.",
"e.e.e.e.-.) z [ G.N.e.e.u.e.e.e.e.e.e.e.=.` * 7.G.u.e.e.e.e.e.e.e.e.e.e.e.e.e.` R x u.G.u.e.e.e.e.e.",
"e.e.e.e.=.) z [ G.i.e.e.e.e.e.e.e.e.e.e.-.) j 5.G.u.e.e.e.e.e.e.e.e.e.e.e.e.e.` U x s.G.y.e.e.e.e.e.",
"e.e.e.e.-.W r P G.u.e.e.e.e.e.e.e.e.e.e.=.) z 5.H.u.e.e.e.e.e.e.e.e.e.e.e.e.e...R r r.G.e.e.>.e.e.e.",
"1.e.e.e.X.E = g V.N.u.e.e.e.e.e.1.e.e.e.=.( h 2.V.u.u.y.e.e.e.e.e.e.e.e.1.e.e.) N = 9.G.u.<.' <.e.e.",
"' ' ' ' N = . f e.V.V.u.-.' ' ' *.' ' ' M w X { k.V.l.e.e.e.e.<.` ' ' ' ' ' ` p $ o +.d.G.k.<.-.*.' ",
"M M M M = +   ; F X.@.F m u u n U U B M w +   9 [ ;.;._ _ ! F A u v n U U m M @ + X l F ;.;._ N M v ",
"= = = = + X X ; ; @ q X X X X 1 z x 5 q @ X X o ; k v q q $ o X X X 1 x x 5 = o X X ; ; x v = = $ o ",
"c.c.c.c.y.>.k.c.c.c.k.:.Z : ..b.W.S.c.c.c.x.N.V.c.c.c.c.c.j.;.Z X *.b.~.S.c.c.c.c.x.c.c.V.c.c.c.c.c.",
"V.V.V.V.u.1.V.V.Z.V.c.i.L y f.L.E.Z.V.Z.V.V.V.V.V.V.V.V.V.l.u.P # f.P.I.S.Z.V.V.Z.V.Z.V.V.V.V.Z.V.V.",
"e.e.e.e.-.' 1.e.e.e.u.G. .G W.L.e.e.e.e.e.e.e.e.e.e.e.e.e.k.G.O.e ~.K.e.e.e.e.e.e.e.e.e.e.e.e.e.e.e.",
"e.e.e.e.1.<.=.>.e.e.e.u./ g S.B.e.e.e.e.e.e.e.e.e.u.e.e.e.u.r._ e G.B.e.e.e.e.e.e.e.e.e.e.e.e.e.e.e.",
"e.e.e.e.e.e.' =.e.e.e.8.K d c.l.u.e.e.e.u.e.e.e.e.e.e.e.e.e.<.E e V.V.e.e.e.e.e.e.e.e.e.e.e.e.e.e.e.",
"e.e.e.e.e.e.e.1.e.e.e.` C Y V.l.e.e.e.e.e.e.e.e.e.e.e.e.e.<.` C x Z.k.t.e.e.e.e.e.e.e.e.e.e.e.e.e.e.",
"e.e.u.e.e.e.e.e.e.e.e.` C Y V.N.e.e.e.e.e.e.e.e.e.e.e.e.e.>.W U x V.N.e.e.e.e.e.e.e.e.e.e.u.e.e.e.e.",
"e.e.e.e.e.e.e.e.w.1.e.E n I c.V.u.e.e.e.e.e.e.e.e.e.e.e.e.=.E m z x.N.e.e.e.e.e.e.e.e.e.e.e.e.e.e.e.",
"e.e.1.' 1.e.=.' ' ' ` e $ 6 e.N.V.e.e.e.e.e.' 1.1.-.' ' ' E - $ ; e.N.V.u.e.e.e.1.=.1.e.' *.' ' ' ' ",
"` { ~ U ~ $.V M N J n + o o S ..#._ ^ %.%.$.U ~ $.B M N U v + . X F ..7.%.%.%.%.~ U ~ $.U J B R m b ",
"= 5 z z z k * & & 4 j X   X X + = = % j z z z z j * & & z 1       X @ 0 j z z z z h z z z 4 & 4 < X "
};
